<?xml version="1.0" encoding="UTF-8"?>
<svg id="TITULOS" xmlns="http://www.w3.org/2000/svg" xmlns:xlink="http://www.w3.org/1999/xlink" viewBox="0 0 1366 697">
  <defs>
    <style>
      .cls-1 {
        fill: none;
      }

      .cls-2 {
        fill: #a63f49;
      }

      .cls-3 {
        fill: #831819;
      }

      .cls-4 {
        fill: url(#Degradado_sin_nombre_52-2);
      }

      .cls-5 {
        clip-path: url(#clippath-1);
      }

      .cls-6 {
        clip-path: url(#clippath-3);
      }

      .cls-7 {
        clip-path: url(#clippath-2);
      }

      .cls-8 {
        fill: #42171a;
      }

      .cls-9 {
        fill: url(#Degradado_sin_nombre_83);
      }

      .cls-10 {
        fill: url(#Degradado_sin_nombre_52);
      }

      .cls-11 {
        fill: #982128;
      }

      .cls-12 {
        clip-path: url(#clippath);
      }
    </style>
    <clipPath id="clippath">
      <rect class="cls-1" x="2.01" y="-771.04" width="1372.5" height="700.32"/>
    </clipPath>
    <clipPath id="clippath-1">
      <rect class="cls-1" x="2.81" y="-773.07" width="1367.04" height="770.46"/>
    </clipPath>
    <radialGradient id="Degradado_sin_nombre_52" data-name="Degradado sin nombre 52" cx="152.12" cy="-461.1" fx="-122.67" fy="-529.75" r="465.17" gradientUnits="userSpaceOnUse">
      <stop offset="0" stop-color="#42171a"/>
      <stop offset=".15" stop-color="#46171a"/>
      <stop offset=".31" stop-color="#52191c"/>
      <stop offset=".48" stop-color="#671b1f"/>
      <stop offset=".59" stop-color="#7b1e23"/>
      <stop offset=".74" stop-color="#5c1a1e"/>
      <stop offset=".86" stop-color="#48171b"/>
      <stop offset=".94" stop-color="#42171a"/>
    </radialGradient>
    <clipPath id="clippath-2">
      <rect class="cls-1" x="-2.39" y="-2.24" width="1375.9" height="702.71"/>
    </clipPath>
    <clipPath id="clippath-3">
      <rect class="cls-1" x="-.58" y="-3.28" width="1370.42" height="773.09"/>
    </clipPath>
    <radialGradient id="Degradado_sin_nombre_52-2" data-name="Degradado sin nombre 52" cx="157.24" cy="259.37" fx="-116.36" fy="191.01" r="463.15" gradientTransform="translate(-9.21 48.37)" xlink:href="#Degradado_sin_nombre_52"/>
    <linearGradient id="Degradado_sin_nombre_83" data-name="Degradado sin nombre 83" x1="-6551.07" y1="378.76" x2="-5075.47" y2="378.76" gradientTransform="translate(-5130.15) rotate(-180) scale(1 -1)" gradientUnits="userSpaceOnUse">
      <stop offset=".43" stop-color="#982128"/>
      <stop offset=".5" stop-color="#932027" stop-opacity=".95"/>
      <stop offset=".61" stop-color="#871f25" stop-opacity=".83"/>
      <stop offset=".74" stop-color="#731c22" stop-opacity=".62"/>
      <stop offset=".89" stop-color="#58191d" stop-opacity=".34"/>
      <stop offset="1" stop-color="#42171a" stop-opacity=".1"/>
    </linearGradient>
  </defs>
  <g class="cls-12">
    <g class="cls-5">
      <path class="cls-8" d="M6.4,107.19s47.56-2.65,70.41,80.85c0,0,20.44,105.72,222.15,89.66,0,0-55.05-29.09-70.24-77.04,0,0,57.35,62.75,112.67,55.67,55.32-7.07,73.05,5.46,73.05,5.46,0,0-47.1-93.43-80.69-129.72,0,0,69.54,83.57,144.22,62.01,0,0,45.51-29.72,62.57-33.07,0,0-33.46-64.9-93.6-94.77,0,0,74.42,21.22,113.58-4.32,0,0,35.92-20.52,69.72-15.61,0,0-26.49-80.88-64.42-96.15,0,0,68.02,31.76,109.11-54.88,0,0,3.96-9.9,13.86-17.33,0,0-8.32-24.75-42.53-38.37,0,0,47.48-23.52,69.76-110.16,0,0,9.54-13.69-6.37-15.51,0,0-22.03-6.77-47.44-15.43,0,0,53.31-10.11,104.3-105.93,0,0-70.3-24.03-92.58-24.03,0,0,69.31-2.48,96.54-160.9,0,0-38.65,17.82-63.88,12.62,0,0,31.7-32.42,44.08-72.03,0,0-17.33,9.9-34.66,17.33,0,0,69.55-38.61,62.01-109.66,0,0-3.1-3.21-11.51,0-8.41,3.21-52.39,76.66-79.34,60.66-.86-.51,116.85-122.77,124.83-225.02,0,0,2.59-16.81-25.66,7.31-28.25,24.12-88.6,70.52-101.74,72.07,0,0,11.61-13.3,21.51-25.68,0,0-19.8,0-27.23-2.48s37.13-12.38,37.13-12.38c0,0,88.55-110.23,101.21-206.11,0,0-65.03,20.26-147.48,99.57,0,0,66.96-69.11,72.7-144.66l-9.28-8.32s-49.42,72.74-121.16,86.92c0,0,23.96-10.53,26.85-26.64,0,0-24.81,16.07-60.46,14.83,0,0,76.3-65.8,99.53-109.02,23.24-43.22,18.28-119.95,18.28-119.95,0,0-12.38-34.66-99.02,81.69,0,0,81.69-180.7,71.79-235.16,0,0-4.95-32.18-44.56-22.28,0,0-86.64,51.98-131.2,118.82,0,0,48.9-64.14,36.83-152.13,0,0-17.03-60.76-41.78-70.66,0,0-15.53-9.59-36.23,59.56,0,0,16.43-143.73,6.53-203.14,0,0-24.05-5.11-57.82,105.12,0,0,41.77-274.11-3.43-331.95,0,0-76.43,62.55-85.57,143.45,0,0-20.55-36.35-65.59,0,0,0-84.02-33.7-125.18,24.84-41.16,58.54-28.78,147.66-28.78,147.66,0,0-148.52-54.46-207.93,53.22C20.44-1486,14.85-1202.71,14.85-1202.71c-5.58,50.6-21.31,173.43-21.31,173.43"/>
      <path class="cls-10" d="M-99.62-274.29S-2.13-295.18,1.11-389.94c3.24-94.76-50.36-107.72-50.36-107.72,0,0-61.4-53.87-39.79-159.08,0,0-5.62-53.22,11.71-82.93,0,0,0-59.41,17.33-84.16,0,0-18.28-85.34,31.7-85.99,0,0,28.34,5.52,36.69,33.38,0,0-.02-20.18-31.73-38.24s-2.95-94.76,0-154.19c0,0,51.11,16.89,81.49,118.59,0,0-21.05-40.14,14.56-116.51,0,0,23.24,25.13,40.57,37.5,17.33,12.38,34.66,79.21,29.7,123.77,0,0,6.2-61.23,37.76-62.8,0,0,9.28.91,16.7,25.67,0,0,17.33,51.98,9.9,89.11,0,0,10.23-34.81,23.68-40.92,13.45-6.11,28.3,16.17,30.78,43.4,2.48,27.23-.77,85.16-27.62,106.94,0,0,20.19-17.83,30.09-30.2,9.9-12.38,21.65-23.52,28.15-21.66,0,0,.92,20.25,0,29.62-.92,9.37-1.03,56.4-18.3,76.2,0,0-17.07,29.7-23.36,40.84,0,0,25.89-31.88,37.03-56.17q11.14-24.28,13.61-21.81c2.48,2.48,6.52,93.61-33.87,126.02,0,0-13.2,14.76-21.85,19.87,0,0,19.69-8.39,30.28-21.44,10.58-13.05,17.15-9.02,17.15-9.02,0,0-10.41,39.24-17.15,48.54-6.74,9.3-27.85,46.43-45.77,58.81,0,0,6.84,0,11.79-2.48,0,0,47.95-64.46,77.2-87.92,29.25-23.47,34.2-35.85,71.33-35.85,0,0,4.95-2.48,2.48,12.38,0,0-3.15,25.29-4.05,37.4,0,0,1.58,14.58,1.58,22.01s4.36,39.4-15.15,50.64c0,0,5.25,1.6,12.68-4.72,0,0,2.47,11.01,2.47,23.38s3.86,13.85,3.17,21.78c-.69,7.93,10.1,27.77-20.05,52.51,0,0,24.16-7.89,27.95-17.57,0,0,10.6,68.6-13.85,92.58-24.45,23.98-34.35,23.98-34.35,23.98,0,0,31.08-4.06,42.77-16.88,0,0,14.17,78.77-82.37,101.05,0,0,24.15,5.1,73.96-28.39,0,0,25.06,127.41-135.84,115.03,0,0,77.88,3.98,98.35,19.32,0,0-31.51,32.67-46.37,57.42-14.85,24.75-27.23,29.7-51.98,27.23,0,0,21.39,2.17,32.98,15.94,11.58,13.77,1.5,4.59,1.5,4.59,0,0-50.34,71.06-134,37.64,0,0,28.22,19.12,61.4,21.32,0,0-35.55,54.81-105.15,47.07,0,0,33.8,6.08,46.46,6.6,0,0-61.6,42.6-113.59,27.75,0,0-17.33-.93-19.8-14.08,0,0-16.18,45.96-79.87,37.45,0,0,17.99-13.47,25.42-43.17,0,0-19.8,55.21-66.84,46.17v-419.96Z"/>
      <path class="cls-3" d="M-21.65,68.56S-1.07,27.41,59.85,4.42c6.82-2.57,13.03-6.61,17.93-12.01,10.43-11.48,25.23-34.31,26.82-72.38,0,0-102.73,60.65-126.25,148.52Z"/>
      <path class="cls-3" d="M95.94-24.27s19.8-42.08,74.26-32.18c54.46,9.9,59.41,37.13,103.97,34.66,0,0-51.98,74.26-136.15,32.18,0,0-19.8-7.43-42.08-34.66Z"/>
      <path class="cls-3" d="M14.25-21.8S-.61,35.14-102.1,32.66l2.48-64.36S-55.06.48,14.25-21.8Z"/>
      <path class="cls-11" d="M-101.05,5.37S-47.64,14.87,9.3-13.37c0,0-17.33,50.98-111.39,46.03l1.05-27.29Z"/>
      <path class="cls-11" d="M108.61-10.47s14.54-17.76,65.3-14.54c0,0-16.08-19.06-45.79-16.59,0,0,22.21-23.91,66.8-8.24,0,0,24.67,10.72,38.34,19.38s31,8.66,40.9,8.66c0,0-24.75,29.7-76.74,34.66,0,0-29.7,2.55-56.93-12.34-27.23-14.89-31.89-10.99-31.89-10.99Z"/>
      <path class="cls-2" d="M101.43-76.05s-29.71,27.03-48.54,59.21C34.05,15.33,29.33,16.57,29.33,16.57c0,0,62.74-8.26,72.1-92.62Z"/>
      <path class="cls-3" d="M316.49-63.32s39.48-24.58,120.74-12.21c81.26,12.37,113.23,27.66,146.25,75.76,33.01,48.1,46.77,46.08,46.77,46.08,0,0-38.12-1.96-77.49,20.58-39.38,22.54-185.28-6.8-244.82-69.91,0,0-34.41-20.88-25.83-28.63,0,0,25.62-20.52,78.68,9.5,53.05,30.03,94.77,48.55,174.37,49.91,0,0-79.93-12.62-130.39-47.81-50.47-35.19-71.9-43.13-88.27-43.29Z"/>
      <path class="cls-11" d="M363.58-6.9s9.59-3.69,22.1-1.68c0,0,63.04,32.37,125.56,35.36l21.35,1.1s-68.78-36.53-122.67-50.22c-53.89-13.69-37.7-10.13-51.31-10.83,0,0,109.73-53.42,182.34-10.6,0,0,37.96,29.68,51.51,56.53,0,0,23.08,28.11,33.08,32.33,0,0-51.23,5.69-80.34,25.09-29.11,19.4-149.95-19.57-172.63-56.22l-8.99-20.86Z"/>
      <path class="cls-2" d="M39,111.88s33.42,1.24,68.07-11.14c0,0-14.19-19.65-45.47-19.73,0,0-1.57,27.15-22.61,30.87Z"/>
    </g>
  </g>
  <g class="cls-7">
    <g class="cls-6">
      <rect class="cls-11" x="-3.59" y="-.27" width="1372.42" height="769.08"/>
      <path class="cls-8" d="M3.02,879.99s47.68-2.66,70.58,81.13c0,0,20.49,106.08,222.7,89.97,0,0-55.19-29.19-70.42-77.3,0,0,57.49,62.96,112.95,55.86,55.46-7.1,73.23,5.48,73.23,5.48,0,0-47.22-93.75-80.89-130.16,0,0,69.71,83.86,144.58,62.22,0,0,45.62-29.82,62.73-33.18,0,0-33.54-65.13-93.83-95.1,0,0,74.6,21.29,113.86-4.34,0,0,36.01-20.59,69.9-15.66,0,0-26.56-81.15-64.58-96.48,0,0,68.19,31.86,109.38-55.07,0,0,3.97-9.94,13.9-17.39,0,0-8.34-24.84-42.63-38.5,0,0,47.6-23.6,69.93-110.53,0,0,9.57-13.74-6.38-15.56,0,0-22.09-6.79-47.56-15.49,0,0,53.44-10.15,104.56-106.29,0,0-70.47-24.11-92.81-24.11,0,0,69.48-2.48,96.78-161.45,0,0-38.75,17.88-64.04,12.66,0,0,31.78-32.54,44.19-72.28,0,0-17.37,9.94-34.74,17.39,0,0,69.73-38.74,62.16-110.03,0,0-3.11-3.23-11.54,0-8.43,3.23-52.52,76.93-79.53,60.87-.87-.51,117.14-123.19,125.14-225.79,0,0,2.59-16.87-25.72,7.33-28.32,24.2-88.82,70.76-101.99,72.32,0,0,11.64-13.35,21.56-25.77,0,0-19.85,0-27.3-2.48-7.44-2.48,37.22-12.42,37.22-12.42,0,0,88.77-110.61,101.46-206.82,0,0-65.19,20.33-147.84,99.91,0,0,67.12-69.34,72.88-145.16l-9.3-8.35s-49.54,72.99-121.46,87.22c0,0,24.02-10.57,26.92-26.73,0,0-24.87,16.12-60.61,14.88,0,0,76.48-66.03,99.78-109.39,23.29-43.36,18.33-120.36,18.33-120.36,0,0-12.41-34.77-99.26,81.97,0,0,81.89-181.32,71.96-235.97,0,0-4.96-32.29-44.67-22.35,0,0-86.85,52.16-131.52,119.23,0,0,49.03-64.36,36.92-152.65,0,0-17.07-60.97-41.88-70.9,0,0-15.56-9.63-36.32,59.77,0,0,16.47-144.22,6.54-203.83,0,0-24.11-5.13-57.96,105.48,0,0,41.87-275.05-3.43-333.09,0,0-76.62,62.76-85.78,143.94,0,0-20.6-36.47-65.75,0,0,0-84.23-33.82-125.49,24.92-41.26,58.74-28.85,148.16-28.85,148.16,0,0-148.89-54.64-208.45,53.4C17.09-718.64,11.49-434.39,11.49-434.39c-5.6,50.77-21.36,174.02-21.36,174.02"/>
      <path class="cls-4" d="M-103.27,497.21S-5.54,476.25-2.29,381.17c3.25-95.08-50.49-108.09-50.49-108.09,0,0-61.55-54.06-39.89-159.62,0,0-5.64-53.4,11.74-83.21,0,0,0-59.61,17.37-84.45,0,0-18.33-85.63,31.78-86.28,0,0,28.41,5.54,36.78,33.49,0,0-.02-20.25-31.81-38.37-31.79-18.12-2.96-95.08,0-154.71,0,0,51.24,16.95,81.69,118.99,0,0-21.11-40.28,14.6-116.91,0,0,23.3,25.21,40.67,37.63,17.37,12.42,34.74,79.48,29.78,124.19,0,0,6.22-61.44,37.85-63.01,0,0,9.3.91,16.74,25.75,0,0,17.37,52.16,9.93,89.42,0,0,10.26-34.93,23.74-41.06,13.48-6.13,28.37,16.22,30.85,43.55,2.48,27.32-.77,85.45-27.68,107.31,0,0,20.24-17.89,30.17-30.31s21.7-23.6,28.22-21.73c0,0,.92,20.32,0,29.72-.92,9.4-1.03,56.59-18.35,76.46,0,0-17.12,29.81-23.42,40.98,0,0,25.96-31.99,37.12-56.36q11.17-24.37,13.65-21.88c2.48,2.48,6.54,93.93-33.95,126.45,0,0-13.23,14.81-21.9,19.94,0,0,19.74-8.42,30.35-21.52,10.61-13.1,17.19-9.05,17.19-9.05,0,0-10.43,39.38-17.19,48.71-6.76,9.33-27.92,46.59-45.88,59.01,0,0,6.86,0,11.82-2.48,0,0,48.07-64.68,77.39-88.23,29.32-23.55,34.28-35.97,71.5-35.97,0,0,4.96-2.48,2.48,12.42,0,0-3.16,25.38-4.06,37.53,0,0,1.58,14.63,1.58,22.08s4.37,39.54-15.18,50.82c0,0,5.27,1.61,12.71-4.73,0,0,2.48,11.04,2.48,23.46s3.87,13.9,3.18,21.85c-.69,7.95,10.13,27.87-20.1,52.68,0,0,24.22-7.91,28.02-17.63,0,0,10.63,68.83-13.88,92.9s-34.44,24.06-34.44,24.06c0,0,31.15-4.08,42.87-16.94,0,0,14.2,79.04-82.58,101.39,0,0,24.21,5.12,74.14-28.49,0,0,25.12,127.84-136.18,115.43,0,0,78.08,3.99,98.59,19.38,0,0-31.59,32.78-46.48,57.62-14.89,24.84-27.3,29.81-52.11,27.32,0,0,21.45,2.18,33.06,15.99s1.51,4.61,1.51,4.61c0,0-50.47,71.3-134.33,37.77,0,0,28.29,19.18,61.55,21.39,0,0-35.64,55-105.41,47.23,0,0,33.88,6.1,46.57,6.62,0,0-61.75,42.74-113.87,27.84,0,0-17.37-.94-19.85-14.13,0,0-16.22,46.12-80.07,37.58,0,0,18.03-13.51,25.48-43.32,0,0-19.85,55.4-67,46.33v-421.39Z"/>
      <path class="cls-3" d="M-25.1,841.22s20.63-41.29,81.7-64.35c6.83-2.58,13.06-6.64,17.97-12.05,10.45-11.52,25.3-34.42,26.89-72.63,0,0-102.98,60.85-126.56,149.03Z"/>
      <path class="cls-3" d="M127.51,579.18c2.48,19.87,4.96,72.03-26.06,100.86-31.02,28.83-83.13,75.49-83.13,75.49,0,0,43.99-37.37,52.11-84.45,0,0,4.96-52.16,27.3-67.06q22.33-14.9,29.78-24.84Z"/>
      <path class="cls-3" d="M80.37,581.66s-4.74-65.65,48.5-93.68c0,0,20.98-10.64,33.39-37.97,0,0,29.78,91.9-81.89,131.64Z"/>
      <path class="cls-3" d="M149.71,360.55c-.56-1.23-2.4-.95-2.53.4-1.03,10.69-6.8,35.37-37.04,54.29-39.7,24.84-27.3,79.48-27.3,79.48,0,0,110.37-38.43,66.87-134.17Z"/>
      <path class="cls-3" d="M50.59,412.76s12.41-72.03,39.7-101.84,34.74-34.77,37.22-49.68c0,0,44.67,32.29,7.44,104.32,0,0,2.48-12.42-2.48-27.32,0,0,9.93,59.61-81.89,74.52Z"/>
      <path class="cls-3" d="M50.59,357.97s-2.48-27.18,19.85-52.02c21.23-23.61,22.28-83.11-22.4-99.62-4.4-1.63-9.33.05-11.8,4.04-10.69,17.24-33.68,69.35,14.35,147.59Z"/>
      <path class="cls-3" d="M-4.01,72.47s-44.67,22.35,49.63,119.23c0,0,71.96-99.35-49.63-119.23Z"/>
      <path class="cls-3" d="M-31.78-140.49c-10.05-1.87-20.32,2.57-25.47,11.41-6.92,11.87-13.3,34.32-6.32,74.87C-51.16,17.82-42.52,14.95-14.58,53.65c0,0,5.61-30.85,20.5-70.59,13.64-36.41,10.62-114.53-37.7-123.54Z"/>
      <path class="cls-3" d="M-26.82-300.09s-16.9,81.94,20.33,149.01C30.73-84.01,58.96-66.99,21.27,49.93c0,0,73.34-133.66,17.82-221.98,0,0,18.13,13.98,23.5,31.13,0,0-17.92-114.44-89.41-159.17Z"/>
      <path class="cls-3" d="M72.92-285.21s-12.41,52.16,4.96,166.42C95.25-4.53,55.55,79.92,55.55,79.92c0,0,99.26-126.68,67-243.42,0,0,12.41,9.94,17.37,27.32,0,0-4.96-101.84-67-149.03Z"/>
      <path class="cls-3" d="M177.14-195.79s-42.19,42.26-37.22,155.26c4.96,113-29.78,152.74-29.78,152.74,0,0,84.37-77,74.45-178.84,0,0,7.44,9.94,7.44,22.35,0,0,19.85-67.06-7.44-126.68,0,0-4.96-9.94-2.48-19.87,0,0,2.48-7.45-4.96-4.97Z"/>
      <path class="cls-3" d="M149.77,158.49S214.37,50.11,236.7,17.82c22.33-32.29,29.78-104.32,2.48-136.61,0,0-32.26,44.71-54.59,121.71-22.33,77-37.38,132.3-34.82,155.57Z"/>
      <path class="cls-3" d="M286.33-19.43s-27.3,4.97-52.11,77c0,0-69.48,62.1-76.93,146.55,0,0-4.96,24.84-4.96,42.23,0,0,29.78-47.19,71.96-94.39,42.19-47.19,51.46-90.33,57.99-132.1,0,0,1.57-21.9,6.53-34.32,0,0,4.96-4.97-2.48-4.97Z"/>
      <path class="cls-3" d="M293.78,60.05s-4.96,7.45-9.93,14.9c-4.96,7.45-22.33,37.26-24.82,49.68,0,0-74.26,58.71-99.17,153.55,0,0,42.09-74.06,81.8-96.42,0,0,62.04-32.29,52.11-121.71Z"/>
      <path class="cls-3" d="M278.57,169.11s-4.65,57.35-61.72,99.58c-57.08,42.23-64.52,86.96-64.52,86.96,0,0-4.96-84.47,59.56-129.18,64.52-44.71,66.69-57.35,66.69-57.35Z"/>
      <path class="cls-3" d="M225.27,278.18s-60.78,26.69-59.42,102.99c0,0,52.95-36.38,59.42-102.99Z"/>
      <path class="cls-3" d="M383.11,266.21s-101.74,37.26-143.93,121.71c0,0,2.48-14.9,7.44-22.35,0,0-47.15,54.64-67,116.74,0,0,19.85-24.84,57.08-39.74,37.22-14.9,90.59-53.83,98.65-82.8,0,0-4.35,20.7-11.79,28.16,0,0,69.48-37.26,59.56-121.71Z"/>
      <path class="cls-3" d="M398,348.18s22.06,96.87-125.45,134.13c0,0-95.4,27.32-125.18,109.29,0,0-6.69-82.55,123.59-158.84,11.29-6.61,23.07-12.35,35.2-17.27,24.63-9.99,78.56-35.02,91.85-67.31Z"/>
      <path class="cls-3" d="M144.88,611.47s32.26-77,96.78-104.32c0,0-9.93,9.94-12.41,19.87,0,0,34.74-37.26,126.56-64.58,14.47-4.31,26.72-10.34,37.1-17.45,0,0-.67,89.48-172.74,136.68,0,0-62.88,17.39-75.29,29.81Z"/>
      <path class="cls-3" d="M112.62,676.05s24.82-37.26,163.78-29.81c26.06,1.4,46.53,1.05,62.84-.49,0,0-30.58,89.91-132.32,75.01-101.74-14.9-94.3-44.71-94.3-44.71Z"/>
      <path class="cls-3" d="M184.59,415.24s56.05-67.06,65.25-78.24c9.2-11.18,23.4-34.7,23.4-34.7,0,0-4.79,21.28-9.5,27.37,0,0,25.07-23.72,57.33-38.62,32.26-14.9,69.48-52.16,54.59-101.84,0,0,2.48-27.32,9.93-42.23,0,0,0-7.45-7.44-4.97,0,0-72.48,32.29-114.41,119.23-41.93,86.94-34.49,89.42-79.15,154Z"/>
      <path class="cls-3" d="M159.87,634.46s22.56-40.38,76.99-52.8c54.43-12.42,130.82-29.81,147.22-65.82,0,0,18.88,95.63-92.79,103.08-111.67,7.45-99.07,1.28-131.43,15.54Z"/>
      <path class="cls-3" d="M84.62,106s70.2,41.35,55.31,149.21c0,0-64.52-13.84-64.52-61.04s18.43-27.32,9.21-88.18Z"/>
      <path class="cls-3" d="M-36.33,186.56c-13.87-2.68-25.34,11.39-20,24.49.07.17.14.34.22.52,7.44,17.39,59.56,84.45,71.96,106.81,0,0-15.59-41.86-15.24-63.16.31-18.74-9.26-63.31-36.94-68.65Z"/>
      <path class="cls-3" d="M50.59,433.7s-4.96,46.12-52.11,56.05c-47.15,9.94-59.56,67.06-59.56,67.06,0,0,86.85,4.97,114.15-52.16,0,0,22.33-45.04-2.48-70.96Z"/>
      <path class="cls-3" d="M58.31,515.84s41.91,115.5-64.8,137.85c-106.71,22.35-138.97-2.48-138.97-2.48,0,0,93.6-6.33,146.06-66.5,52.46-60.17,45.19-56.48,45.19-56.48,0,0-10.1,45.93-27.47,68.31,0,0,35.29-32.26,39.98-80.7Z"/>
      <path class="cls-3" d="M-105.75,527.02s93.65,10.54,118.78-140.62c3.9-23.45,1.93-47.66-6.91-69.73-8.57-21.38-24.65-44.5-54.8-57.91,0,0,42.19,32.29,52.11,67.06,9.93,34.77,2.49,123.11-48.38,153.46-50.88,30.35-68.25,22.89-68.25,22.89l7.44,24.84Z"/>
      <path class="cls-3" d="M281.85,207.2s140.82-105.43,117.32-249.24c0,0-30.95,64.83-53.28,84.7-22.33,19.87-63.55,145.27-64.03,164.54Z"/>
      <path class="cls-3" d="M401.82-169.26c2.85,1.99-1.48,7.87-2.65,22.96-1.17,15.09,18.68,57.32-50.8,174.06,0,0-39.7,57.13-47.15,94.39,0,0-2.48-62.1,17.37-96.87,0,0,37.22-67.06,42.19-74.52,0,0-49.83,82.09-59.66,87,0,0,17.47-64.64,54.69-116.8,37.22-52.16,41.76-90.22,41.76-90.22,0,0,3.1-.8,4.25,0Z"/>
      <path class="cls-3" d="M-100.79,730.69s67,44.71,124.08-12.42c0,0,22.33-17.39,32.26-69.55,0,0,2.48-8.36-2.48-12.87,0,0-65.41,48.33-128.24,47.99-62.84-.34-41.02,0-41.02,0l15.4,46.85Z"/>
      <path class="cls-11" d="M-18.57,553.12s-16.75.36-20.95-7.9c0,0-1.71-28.14,28.07-38.07,29.78-9.94,62.74-22.35,66.11-37.26,3.37-14.9,1.77-26.38-2.39-34.3,0,0,13.37,12.61,9.57,38.36-3.8,25.75-15.56,65.54-80.4,79.18Z"/>
      <path class="cls-11" d="M-92.9,663.02s59.12-11.81,98.82-41.62c39.7-29.81,53.63-46.54,56.6-90.33,0,0,17.79,63.16-19.4,97.86-37.19,34.7-100.83,31-136.01,34.09Z"/>
      <path class="cls-11" d="M-112.71,694.42s54.11,3.98,108.7-18.38c0,0,0,14.27-21.09,24.52,0,0,58.75-16.01,80.87-60.01,0,0-.39,56.49-46.21,89.46-45.82,32.96-97.93,8.12-110.34.67l-11.92-36.27Z"/>
      <path class="cls-11" d="M182.11,661.6s34.53-11.37,90.47-5.91c55.94,5.46,66.24-8.78,66.24-8.78,0,0-27.42,77.03-114.4,75.44-86.98-1.59-96.91-41.33-96.91-41.33,0,0,34.74,24.84,104.22-4.97,0,0-12.41-16.48-49.63-14.45Z"/>
      <path class="cls-11" d="M158.42,635.85s32.11-51.67,99.87-59.14c67.75-7.47,85.12-2.5,112.42-29.82,0,0-2.48,12.42-22.33,22.35,0,0,28.9-4.71,36.78-43.34,0,0,10.73,79.79-78.79,91.37,0,0-64.7,5.76-99.44,6.19-34.74.43-48.51,12.39-48.51,12.39Z"/>
      <path class="cls-11" d="M171.32,597.67s49.82-83.08,153.14-115.37c36.06-11.27,56.82-24.66,68.56-37.32,0,0-29.76,69.61-114.13,104.38-84.37,34.77-107.57,48.3-107.57,48.3Z"/>
      <path class="cls-11" d="M215.41,506.89s38.66-69.29,98.22-99.1,79.39-59.61,79.39-59.61c0,0,13.36,57.85-42.01,89.31-5.23,2.97-10.84,5.18-16.59,6.92-18.26,5.5-71.71,23.86-119,62.48Z"/>
      <path class="cls-11" d="M335.23,360.16c1.99-4.13-5.29,17.07-5.29,17.07,48.57-50.43,53.58-107.07,53.58-107.07-21.92,31.27-62.45,40.76-101.36,74.82-38.91,34.06-56.89,97.42-56.89,97.42,0,0,17.48-21.16,46.71-34.1,29.23-12.93,55.08-31.2,63.25-48.15Z"/>
      <path class="cls-11" d="M241.66,325.82s18.13-28.82,48.77-41.73,43.05-25.33,45.53-42.72c0,0,6.03,9.94,4.25,24.84,0,0,18.08-32.29,23.04-42.23,4.96-9.94,8.85-35.59,11.87-41.39,0,0,7.98-33.12,10.46-35.61,0,0,.56-9.05-10.89-3.28,0,0-52.52,22.06-101.47,99.61,0,0-24.13,45.26-31.58,82.52Z"/>
      <path class="cls-11" d="M301.12,179.02s38.03-25.34,67.45-72.16c0,0,26-46.15,30.19-81.26,0,0,6.54-48.03.4-67.65,0,0-22.29,51.02-47.71,79.04,0,0-20.46,32.99-27.9,55.34-7.44,22.35-7.44,14.9-14.89,54.64,0,0-2.68,14.39-7.54,32.03Z"/>
      <path class="cls-11" d="M200.08,219.97s23.39-25.61,44.9-39.36c21.51-13.75,44.95-48.35,46.88-72.03,1.93-23.68,4.41-33.62,1.93-48.52,0,0-29.78,42.23-34.74,64.58,0,0-40.99,34.19-58.96,95.34Z"/>
      <path class="cls-11" d="M174.66,191.7s46.31-60.51,72.78-83.66c0,0,17.48-21.18,24.46-39.55,0,0,10.92-36.72,11.43-58.6,0,0,2.28-19.09,6.36-25.45,0,0,1.24-10.47-9.75-.96,0,0-25.88,36.83-40.77,79.05,0,0-32.26,20.91-54.59,86.21,0,0-2.48,18.11-9.93,42.95Z"/>
      <path class="cls-11" d="M179.63,92.34s9.75-24.3,23.49-38.23c13.74-13.93,37.33-56.16,42.9-73.54,5.58-17.39,15.4-63.34-4.4-96.25,0,0,.05,6.83-4.91,9.31-4.96,2.48-37.22,69.55-47.15,121.71,0,0-17.37,47.19-9.93,77Z"/>
      <path class="cls-11" d="M121.47,92.34S179.63-2.05,187.07-74.08c0,0,9.18,10.02,7.07,21.16,0,0,14.55-69.25-11.15-122.2,0,0-1.45-8.06-1.17-14.36,0,0,2.76-8.78-4.68-6.3,0,0-20.03,14.9-24.9,77,0,0-12.32,42.26-12.32,78.26,0,0,5.28,73.26-18.45,132.87Z"/>
      <path class="cls-11" d="M84.47,20.09c15.54-20.99,67.78-104.59,24.23-231.8,0,0-30.5-47.43-31.9-70.4l-3.88-3.1s-13.72,34.17.59,133.83c0,0,16.79,52.46,11.82,114.56,0,0-3.53,38.86-4.64,55.51-.14,2.09,2.53,3.08,3.77,1.4Z"/>
      <path class="cls-11" d="M335.96-21.92s22.33-32.29,34.74-42.23c0,0-12.43,35.4-21.1,52.47-8.68,17.08-16.12,44.4-18.6,51.85,0,0,34.21-44.71,45.64-65.82,11.43-21.11,23.92-63.56,23.88-82.08-.04-18.52-1.35-38.58-1.35-38.58l3.6-22.09-5.2-.87s-8.04,42.9-28.62,70.28c0,0-23.06,37.32-32.99,77.06Z"/>
      <path class="cls-11" d="M84.62,106s5.68,26.08,3.19,40.98c-2.48,14.9,4.96,47.19,27.3,64.58,22.33,17.39,24.82,26.25,24.82,26.25,0,0-1.32-73.01-26.72-104.28-25.39-31.27-28.59-27.54-28.59-27.54Z"/>
      <path class="cls-11" d="M-4.01,72.47s41.04,2.21,51.54,33.39c10.5,31.19,10.36,45.77-4.46,83.19,0,0-55.5-49.83-57.49-98.11,0,0,.49-13.51,10.41-18.47Z"/>
      <path class="cls-11" d="M36.24,210.38s4.42-7.24,14.35-3.03c9.93,4.22,18.83,24.09,20.58,38.99,1.75,14.9,2.84,35.48-8.87,53.76-11.71,18.27-14.19,30.69-14.19,30.69,0,0-23.4-29.81-20.39-72.03,3.02-42.23,8.52-48.38,8.52-48.38Z"/>
      <path class="cls-11" d="M-57.67,205.72s-.74-12.62,11.57-18.29c12.31-5.67,29.68,24.13,29.68,41.52s21.07,69.1,27.9,76.78c0,0-49.44-65.55-56.04-74.89,0,0-12.18-16.06-13.12-25.12Z"/>
      <path class="cls-11" d="M127.51,261.24s22.33,37.26,7.44,59.61c-14.89,22.35-64.42,57.54-68.19,67.27,0,0-4.35-46.34,21.99-75.43,26.34-29.09,33.79-34.06,38.75-51.45Z"/>
      <path class="cls-11" d="M88.55,482.31s48.74-18.22,61.22-55.06c12.48-36.84,2.29-59.29-.06-66.69,0,0-8.48,39.67-41.39,55.88-32.92,16.2-19.77,65.88-19.77,65.88Z"/>
      <path class="cls-11" d="M162.26,450.02s-7.22,19.12-33.39,44.34c-26.17,25.21-27.47,33.74-25.58,46.86,1.89,13.12,1.9,18.71-.58,22.13,0,0,53.64-18.9,62.8-77.29,0,0,1.72-21.13-3.25-36.04Z"/>
      <path class="cls-11" d="M177.14,363.08s6.92-60.52,48.13-84.9c0,0-13.39,57.58-48.13,84.9Z"/>
      <path class="cls-11" d="M184.59,288.85s16.06-41.45,42.77-63.09c26.71-21.64,40.69-39,49.83-53.92,0,0-7.06,51.65-49.83,80.46-42.77,28.81-42.77,36.55-42.77,36.55Z"/>
      <path class="cls-2" d="M-103.27,722.42s109.08,13.75,158.76-77.17c0,0-2.27,87.61-87.96,101.43,0,0-45.99,3.88-68.32-15.99l-2.48-8.27Z"/>
      <path class="cls-2" d="M-7.47,538.15c-1.67-.33-2.18-2.46-.82-3.5,4.91-3.76,14.56-11.88,21.66-22.54,9.93-14.9,27.3-12.42,34.74-22.35,7.44-9.94,10.98-36.03,9.21-46.58,0,0,15.61,49.06-16.65,76.39-23.78,20.14-40.82,20.04-48.13,18.59Z"/>
      <path class="cls-2" d="M105.18,467.4s32.14-18.09,42.13-36.37c9.98-18.28,11.6-53.17,2.11-69.26,0,0-8.48,30.9-26.36,44.66-17.88,13.76-27.8,51.02-17.88,60.96Z"/>
      <path class="cls-2" d="M97.74,348.18s36.61-19.39,36.92-71.79c0,0-4.66-10.17-7.14-15.14,0,0-7.85,23.46-18.82,37.81-10.96,14.35-13.44,24.29-10.96,49.12Z"/>
      <path class="cls-2" d="M43.14,211.57s-26.29,51.72,6.71,94.17c0,0,.74-22.13,8.18-34.55,7.44-12.42-4.96-52.16-14.89-59.61Z"/>
      <path class="cls-2" d="M85.8,112.21s29.24,15.08,41.68,68.4c0,0,.03,18.54,5,33.44,0,0-40.99-46.24-44.07-74.04,0,0,.35-15.38-2.6-27.8Z"/>
      <path class="cls-2" d="M-4.01,74.95s24.82,7.45,34.74,27.32c9.93,19.87,7.41,37.73,7.41,37.73,0,0-.82,18.94,2.09,29.1,0,0-42.86-31.99-53.48-68.04,0,0-5.65-21.15,9.24-26.12Z"/>
      <path class="cls-2" d="M204.44,45.15S240.44.44,246.01-19.43c5.58-19.87,15.4-60.85-4.4-96.25,0,0,2.53,6.83-4.91,9.31,0,0-42.19,52.16-32.26,151.52Z"/>
      <path class="cls-2" d="M219.33,127.11s47.45-30.47,55.99-71.12c0,0,6.05-38.49,9.77-56.96l4.61-14.59s1.24-7.99-9.75-.96c0,0-53.17,81.54-60.62,143.63Z"/>
      <path class="cls-2" d="M241.66,181.76s51.01-49.71,52.8-91.92c0,0,1.79-17.37-.69-29.79,0,0-42.19,77-52.11,121.71Z"/>
      <path class="cls-2" d="M376.01,179.02c-2.14,19.61-20.19,54.9-52.01,67.32-31.82,12.42-50.76,37.41-50.76,37.41,0,0,6.21-93.65,101.47-140.04,0,0,10.89-6.65,10.89,3.28,0,0-9.25,21.84-9.59,32.03Z"/>
      <path class="cls-2" d="M327.36,146.43s3.18-16.83,19.54-32.97c16.36-16.15,57.62-66.98,49.39-137.19,0,0-22.49,53.98-38,68.88-15.51,14.9-42.01,65.95-30.93,101.28Z"/>
      <path class="cls-2" d="M98.28,696.12s-29.78,27.12-48.66,59.41c-18.88,32.29-23.61,33.53-23.61,33.53,0,0,62.9-8.28,72.28-92.94Z"/>
      <path class="cls-3" d="M313.87,708.9s39.58-24.66,121.04-12.25c81.46,12.41,113.51,27.75,146.61,76.02,33.1,48.27,46.88,46.24,46.88,46.24,0,0-38.21-1.97-77.69,20.65-39.47,22.62-185.74-6.82-245.43-70.15,0,0-34.5-20.95-25.89-28.72,0,0,25.69-20.59,78.87,9.54,53.18,30.13,95.01,48.72,174.8,50.08,0,0-80.13-12.66-130.72-47.97-50.59-35.31-72.07-43.28-88.49-43.43Z"/>
      <path class="cls-3" d="M370.11,679.61s114.91.44,256.08-30.65c0,0,40.07-8.89,56.6,2.91,0,0-24.83,17.9-34,36.6-9.17,18.7-73.42,42.39-140.14,10.39-66.73-31.99-138.53-19.25-138.53-19.25Z"/>
      <path class="cls-3" d="M298.52,634.84s38.35-.77,80.41-20.51c42.06-19.75,107.43-13.65,163.56-40.89,56.13-27.24,62.01-35.16,62.01-35.16,0,0-84.13,39.5-158.24,43.9-74.11,4.4-80.7,25.98-80.7,25.98,0,0,12.89-37.85,87.28-47.64,74.39-9.78,71.4-26.22,106.63-35.44,35.23-9.22,43.98-19.73,90.66-22.8,46.68-3.08,57.88-7.98,57.88-7.98,0,0-13.04,147.24-227.47,166.34,0,0-58.3,16.17-109.17-5.62-50.88-21.79-72.85-20.18-72.85-20.18Z"/>
      <path class="cls-3" d="M416.38,479.3s108.92-103.96,207.6-107.1c98.68-3.14,131.57-4.19,131.57-4.19,0,0-83.16,127.2-271.42,169.56,0,0-39.05,14.43-66.49,15.75,0,0-19.11-.98-12.66-19.83,0,0-3.53-21.85,10.06-28.12,13.6-6.27,66-17.27,114.16-47.66,48.16-30.39,86.65-33.89,86.65-33.89,0,0-48.87,8.44-124.37,31.95-75.51,23.51-75.1,23.53-75.1,23.53Z"/>
      <path class="cls-3" d="M404.99,426.67s34.09-77.68,114.09-90c79.99-12.32,111.42-38.09,111.42-38.09,0,0-66.93,24.28-114.89,25.75-47.97,1.47-85.83,46.09-85.83,46.09,0,0,16.31-51.2,121.29-70.45,0,0,61.31-21.5,87.56-53.02,26.25-31.52,126.4-63.26,126.4-63.26,0,0-17.02,118.2-95.4,152.51-78.39,34.31-148.02,58.12-170,59.73l-94.62,30.74Z"/>
      <path class="cls-3" d="M417.11,190.7s101.68-61.54,177.95-81.24c76.27-19.7,180.73-148.79,208.09-248.6,0,0-120.52,108.75-192.06,146.26-71.54,37.51-170.61,101.58-193.98,183.58Z"/>
      <path class="cls-3" d="M397.83,86.65s183.93-64.49,284.65-160.66l-26.45-17.8,55.43-13.58s82.04-119.35,104.41-201.59c0,0-211.6,168.59-265.65,256.24l36.84-60.45s-63.16,34.49-101.87,95.5c-38.71,61.01-87.35,102.33-87.35,102.33Z"/>
      <path class="cls-3" d="M412.75,275.63s47.46-105.2,181.4-138.59c133.94-33.4,178.55-102.89,178.55-102.89,0,0,14.79,49.27-81.25,112.52-35.99,23.7-76.61,39.31-118.96,47.23-40.06,7.49-103.93,27.63-159.74,81.74Z"/>
      <path class="cls-3" d="M408.92,350.17s17.88-79.65,79.18-101.95c61.3-22.3,178.99-49.23,255.86-120.54,0,0-66.66,98.35-197.56,149.63,0,0,18.18-27.39,41.98-37.77,0,0-39.24,19.8-81,46.13-41.76,26.33-76.34,60.16-98.45,64.5Z"/>
      <path class="cls-3" d="M418.19,21.85s66.32-124.82,169.33-162.18c103.01-37.36,144.07-207.81,144.07-207.81,0,0-75.06,86.53-152.64,105.82,0,0,3.64-1.18,15.08-27.99,0,0-42.91,36.14-73.77,50.99-34.73,16.71-98.55,107.23-105.27,131.54,0,0,42.1-66.31,111.08-84.68,68.98-18.36,78.67-39.78,78.67-39.78,0,0-18.61,44.71-97.14,80.83-78.53,36.13-89.41,153.24-89.41,153.24Z"/>
      <path class="cls-11" d="M393.73,645.99s33.13-14.11,66.67-50.06c0,0,49.77-8.48,95.36-29.03,45.6-20.56,48.75-28.61,48.75-28.61,0,0-48.29-5.22-103.26,19.34,0,0,34.01-21.46,40.19-25.97,6.18-4.51,39.32-9,54.84-18.8,15.52-9.8,62.93-11.22,62.93-11.22,0,0,34.89-2.56,48.82-7.32,0,0-14.33,104.6-119.81,141,0,0-55.52,22.54-107.66,25.34,0,0-35.28,6.8-51.97,5.74,0,0,24.54-4.41,41.47-14.5,0,0-52.78,15.26-76.32-5.9Z"/>
      <path class="cls-11" d="M491.69,496.87s41.2-22.53,58.92-38.06c17.72-15.52,65.24-34.99,65.24-34.99,0,0-121.06,27.11-143.88,38.02,0,0,58.54-72.49,132.99-87.86,0,0,41.62-2.05,60.48-3.11,18.86-1.05,81.78-.56,90.11-2.87,0,0-43.74,69.06-131.37,115.18,0,0-104.01,45.27-132.49,13.68Z"/>
      <path class="cls-11" d="M518.36,392.35s-.59-30.23,44.02-46.17c44.6-15.94,106.61-51.1,121.38-72.25,0,0-37.5,15.68-65.5,12.28,0,0-6.3.46-17.5,5.36,0,0,3.9-15.36,20.81-28.62,16.91-13.26,21.33-23.9,33.4-30.17,12.07-6.27,73.57-41.25,102.83-46.7l7.21-2.39s-23.34,132.66-116.44,161.56c0,0-87.53,37.23-107.12,40.42l-23.1,6.68Z"/>
      <path class="cls-11" d="M479.91,140.17s37.45-36.42,66.56-70.53c29.12-34.11,99.74-77.04,119.4-86.99,19.67-9.94,91.79-82.24,114.7-101.95l22.57-19.85s-34.51,120.58-145.39,214c0,0-39.17,29.3-62.7,34.6-23.53,5.3-70.91,22.03-107.24,36.6l-7.91-5.89Z"/>
      <path class="cls-11" d="M537.23,196.88s39.4-28.46,97.45-63.13c58.05-34.67,108.08-49.68,138.01-99.61,0,0,9.64,71.41-116.45,132.47,0,0-58.74,29.6-119.01,30.26Z"/>
      <path class="cls-11" d="M449.66,302.97s47.49-35.33,67.94-52.37c20.46-17.04,62.11-32.91,62.11-32.91,0,0,120.46-36.17,161.19-90.16,0,0-66.47,101.1-194.5,149.79,0,0,18.15-27.59,34.93-34.13,0,0-24.44-3.18-66.93,24.76-42.48,27.94-64.74,35.02-64.74,35.02Z"/>
      <path class="cls-11" d="M421.29,16.32s44.95-83.55,97.06-116.16c0,0,47.33-30.5,62.13-37.77,0,0-94.37,7.2-142.77,85.66,0,0-19.19,50.62-16.42,68.27Z"/>
      <path class="cls-11" d="M813.87-300.09s-188.94,129.93-257.11,239.45l30.29-50.54s-73,43.36-101.87,95.5c0,0-41.55,57.74-62.5,78.54,0,0,212.73-98.38,391.19-362.94Z"/>
      <g>
        <path class="cls-2" d="M163.63,455.04s-25.75,35.96-42.72,60.8c-16.97,24.84,37.89,37.37,42.72-60.8Z"/>
        <path class="cls-2" d="M123.06,584.92s-35.23,31.6-37.1,61.99c-1.87,30.38-8.17,54.28-16.19,62.2-8.01,7.92,78.84-41.76,53.29-124.19Z"/>
      </g>
      <rect class="cls-9" x="-54.68" y="-60.43" width="1475.61" height="878.37"/>
    </g>
  </g>
</svg>