<?xml version="1.0" encoding="UTF-8"?>
<svg id="Capa_1" xmlns="http://www.w3.org/2000/svg" version="1.1" viewBox="0 0 576 512">
  <!-- Generator: Adobe Illustrator 29.5.1, SVG Export Plug-In . SVG Version: 2.1.0 Build 141)  -->
  <defs>
    <style>
      .st0 {
        fill: #fff;
      }
    </style>
  </defs>
  <path class="st0" d="M288,32c-80.8,0-145.5,36.8-192.6,80.6C48.6,156,17.3,208,2.5,243.7c-3.3,7.9-3.3,16.7,0,24.6,14.8,35.7,46.1,87.7,92.9,131.1,47.1,43.8,111.8,80.6,192.6,80.6s145.5-36.8,192.6-80.6c46.8-43.5,78.1-95.4,93-131.1,3.3-7.9,3.3-16.7,0-24.6-14.9-35.7-46.2-87.7-93-131.1-47.1-43.8-111.8-80.6-192.6-80.6ZM144,256c0-79.53,64.47-144,144-144s144,64.47,144,144-64.47,144-144,144-144-64.47-144-144ZM288,192c0,35.3-28.7,64-64,64-7.1,0-13.9-1.2-20.3-3.3-5.5-1.8-11.9,1.6-11.7,7.4.3,6.9,1.3,13.8,3.2,20.7,13.7,51.2,66.4,81.6,117.6,67.9s81.6-66.4,67.9-117.6c-11.1-41.5-47.8-69.4-88.6-71.1-5.8-.2-9.2,6.1-7.4,11.7,2.1,6.4,3.3,13.2,3.3,20.3h0Z"/>
</svg>