<?xml version="1.0" encoding="UTF-8"?>
<svg id="general" xmlns="http://www.w3.org/2000/svg" version="1.1" viewBox="0 0 50 50">
  <!-- Generator: Adobe Illustrator 29.5.1, SVG Export Plug-In . SVG Version: 2.1.0 Build 141)  -->
  <defs>
    <style>
      .st0 {
        fill: #8e2c2d;
      }
    </style>
  </defs>
  <g>
    <path class="st0" d="M39.61,18.58c-1.42,2.07-3.33,3.03-5.72,3.09-1.36.03-2.65-.18-3.75-1.07-1.57-1.28-1.62-3.1-1.83-4.9-.22-2.02,1.04-3.34,2.22-4.8-2.53.07-5.19,2.46-5.92,5.25-.17.66-.22,1.35-.33,2.03-.04.24.03.55-.27.67-.28.11-.48-.11-.67-.27-.48-.41-1.37-5.55-1.06-6.11,2.39-4.29,8.23-6.57,12.93-5.05,1.59.52,1.79,1.18.73,2.51-1.11,1.37-2.23,2.72-3.34,4.09-.66.82-.82,2.67-.33,3.52.49.85,2.79.68,3.67-.34,1.18-1.36,2.29-2.78,3.44-4.17,1.27-1.54,1.97-1.45,2.9.33,2.15,4.15,1.26,9.62-2.06,12.87-.48.47-.9.62-1.43.13-.16-.15-.33-.27-.5-.4-1.5-1.19-1.47-1.17-.32-2.6,1.1-1.36,1.75-2.89,1.62-4.76,0,0,.02-.02.02-.02Z"/>
    <path class="st0" d="M15.59,44.97c-2.34.25-4.69-.89-5.69-2.87-1.1-2.16-1.08-4.32.5-6.27,2.66-3.31,5.38-6.57,8.05-9.87.51-.63.96-.8,1.58-.2.21.21.44.41.7.57,1.06.64,1.07,1.27.25,2.22-2.4,2.8-4.69,5.69-7.03,8.54-.24.3-.5.59-.71.91-.65,1.02-.44,2.36.43,3.01.87.64,2.05.5,2.88-.44.99-1.13,1.92-2.31,2.87-3.47,1.36-1.66,2.71-3.32,4.08-4.97.23-.28.41-.79.85-.67.42.11.33.64.46.99.22.56.36,1.15.62,1.69.27.58.21,1.04-.19,1.53-2.08,2.5-4.13,5.04-6.24,7.53-.89,1.06-2.12,1.57-3.4,1.78h-.01Z"/>
  </g>
  <path class="st0" d="M7.61,13.02c-.34-1.68-.72-3.36-1-5.05-.26-1.52.22-2.56,1.19-2.88,1.03-.34,1.97.33,2.4,1.72.56,1.82,1.31,2.33,2.74,1.89,4.16-1.27,8.06,1.74,9.11,7.09.17.88.51,1.45,1.12,1.96,5.38,4.5,10.76,9.02,16.11,13.56,2.56,2.17,2.89,6.04.76,8.13-1.32,1.29-3.19,1.23-4.92-.21-3.98-3.33-7.95-6.69-11.93-10.04-1.45-1.22-2.91-2.44-4.36-3.67-.37-.31-.7-.49-1.16-.39-4.45.95-7.91-1.89-9.13-7.45-.34-1.55-.63-3.11-.94-4.67h.01ZM16.36,21.73c1.63-.35,3.27-3.33,2.96-5.34-.46-2.94-2.99-5.04-5.25-4.25-.97.34-1.93.45-2.94.13-.53-.17-.72-.01-.57.67.37,1.76.66,3.55,1.11,5.29.63,2.42,2.74,3.93,4.69,3.51h0ZM38.4,35.05c-.08-.5-.49-.8-.88-1.13-3.71-3.12-7.43-6.22-11.12-9.39-.87-.75-1.16-.32-1.59.46-.43.8-.35,1.22.36,1.81,3.64,3.01,7.25,6.08,10.87,9.12.36.3.7.63,1.13.73.88.2,1.46-.49,1.21-1.6h.02Z"/>
</svg>