<?xml version="1.0" encoding="UTF-8"?>
<svg id="Capa_5" xmlns="http://www.w3.org/2000/svg" version="1.1" viewBox="0 0 50 50">
  <!-- Generator: Adobe Illustrator 29.5.1, SVG Export Plug-In . SVG Version: 2.1.0 Build 141)  -->
  <defs>
    <style>
      .st0 {
        fill: #8e2c2d;
      }
    </style>
  </defs>
  <path class="st0" d="M26.57,45h-12.81c-1.17,0-2.32-.17-3.37-.73-1.8-.97-2.78-2.5-2.85-4.52-.08-2.45,0-6.58,0-9.04V7.58c0-.92.22-1.73,1.11-2.21,1.45-.78,3.12.09,3.3,1.71.03.29.02.58.02.87v29.35c.02,1.16.37,3.21,1.52,3.21h26.39c.97,0,1.8.23,2.33,1.12.66,1.12.15,2.62-1.05,3.1-.53.21-1.09.28-1.66.27h-12.93Z"/>
  <path class="st0" d="M34.94,19.2h3.49c1.12,0,1.71.51,1.9,1.62.04.25.05.51.05.76v5.99c0,.34-.04.69-.07,1.03-.11,1.28-1.77,1.78-2.59,1.14-.7-.55-1.3-1.21-1.92-1.85-.37-.38-.6-.38-.97,0-1.51,1.54-3.05,3.06-4.58,4.59-.71.71-1.52,1.11-2.55.87-.53-.13-.95-.43-1.33-.81-1.38-1.42-2.78-2.82-4.15-4.25-.35-.37-.59-.41-.96-.01-1.03,1.1-2.08,2.18-3.14,3.25-.86.86-2.06,1.07-2.93.55-1.07-.63-1.42-2-.81-3.08.24-.42.56-.75.9-1.09,1.51-1.5,3.01-3,4.51-4.5,1.23-1.23,2.67-1.24,3.88,0,1.39,1.41,2.78,2.82,4.15,4.25.34.35.56.38.92,0,.96-1.04,1.96-2.05,2.96-3.05.3-.3.29-.52-.01-.81-.57-.54-1.11-1.1-1.66-1.65s-.71-1.19-.4-1.94c.3-.73.88-.98,1.61-.98,1.24-.01,2.47,0,3.71,0v-.03Z"/>
</svg>