<?xml version="1.0" encoding="UTF-8"?>
<svg id="general" xmlns="http://www.w3.org/2000/svg" version="1.1" viewBox="0 0 50 50">
  <!-- Generator: Adobe Illustrator 29.5.1, SVG Export Plug-In . SVG Version: 2.1.0 Build 141)  -->
  <defs>
    <style>
      .st0 {
        fill: #8e2c2d;
      }
    </style>
  </defs>
  <path class="st0" d="M17,14.66c2.19-.13,4.71.21,7.21-.24,4.25-.77,7.89-2.67,10.92-5.74.83-.85,1.67-1.69,2.53-2.52.89-.85,1.86-1.48,3.19-.96,1.38.54,1.76,1.69,1.78,2.98.05,2.95.05,5.89,0,8.84-.02,1.1.22,1.96,1.04,2.8,1.93,2,1.88,5.63-.1,7.67-.71.73-.94,1.45-.93,2.4.03,2.85,0,5.7,0,8.55,0,.91-.1,1.82-.62,2.6-.88,1.32-2.68,1.47-3.98.29-1.16-1.06-2.22-2.22-3.35-3.3-3.38-3.25-7.46-4.99-12.09-5.52-.91-.1-1.32.2-1.31,1.16.03,2.19.03,4.37,0,6.56-.03,2.61-1.37,4.18-3.92,4.64-1.09.2-2.18.2-3.27.06-2.74-.36-4.24-2.03-4.29-4.8-.04-2.04-.05-4.09,0-6.13.02-.99-.26-1.53-1.29-1.85-2.4-.73-3.6-2.48-3.63-5.02-.02-2.23-.02-4.47,0-6.7.02-3.6,2-5.63,5.63-5.74,2.04-.06,4.09-.01,6.46-.01v-.02h.02ZM38.55,11.14c-1.21,1-2.16,1.85-3.18,2.6-3.63,2.68-7.64,4.41-12.18,4.75-1.38.1-2.02.57-1.92,2.1.14,2.13.07,4.27.02,6.41-.02,1.06.34,1.52,1.46,1.6,5.46.39,10.16,2.56,14.25,6.16.43.38.78.95,1.55.95V11.13h0ZM17.25,23.55h0c0-1.19-.01-2.38,0-3.56.01-.8-.26-1.26-1.14-1.26-1.95.02-3.9.01-5.85,0-.9,0-1.3.47-1.3,1.33v6.99c0,.87.42,1.33,1.3,1.33h5.85c.77,0,1.13-.36,1.13-1.13v-3.71h.01ZM17.26,36.66h-.01v-3.13c0-1.29-.96-1.06-1.74-1.06-.73,0-1.63-.21-1.63,1,0,2.14,0,4.27.01,6.41,0,.4.13.73.53.93,1.5.74,2.82-.06,2.84-1.73,0,0,0-2.42,0-2.42Z"/>
</svg>