<?xml version="1.0" encoding="UTF-8"?>
<svg id="general" xmlns="http://www.w3.org/2000/svg" version="1.1" viewBox="0 0 50 50">
  <!-- Generator: Adobe Illustrator 29.5.1, SVG Export Plug-In . SVG Version: 2.1.0 Build 141)  -->
  <defs>
    <style>
      .st0 {
        fill: #8e2c2d;
      }
    </style>
  </defs>
  <path class="st0" d="M25.02,41.84H8.84c-4.02,0-6.33-2.3-6.33-6.31,0-7.02-.02-14.04,0-21.06,0-4,2.33-6.29,6.36-6.29h32.22c3.97,0,6.38,2.36,6.39,6.31.03,7.02.03,14.04,0,21.06-.02,3.95-2.43,6.28-6.41,6.29h-16.05ZM25.02,12.53h-15.77c-2.01,0-2.68.89-2.18,2.83.18.69.73,1.07,1.22,1.47,4.42,3.63,8.85,7.25,13.28,10.87,2.34,1.91,4.58,1.9,6.94-.04,4.53-3.72,9.02-7.48,13.58-11.16,1.08-.88,1.05-1.93.77-3.01-.29-1.13-1.34-.95-2.21-.95h-15.63ZM42.71,21.71c-.41.31-.85.63-1.26.97-3.37,2.78-6.76,5.54-10.11,8.35-3.81,3.19-8.49,3.33-12.39.23-3.6-2.87-7.12-5.83-10.68-8.75-.28-.23-.54-.67-.92-.54-.5.17-.32.72-.32,1.11-.01,4.09-.02,8.19,0,12.28,0,1.83.29,2.13,2.1,2.13h31.81c1.69,0,2.05-.36,2.05-2.06.02-4.23,0-8.47,0-12.7,0-.31.1-.65-.28-1.02Z"/>
</svg>