<?xml version="1.0" encoding="UTF-8"?>
<svg id="general" xmlns="http://www.w3.org/2000/svg" version="1.1" viewBox="0 0 50 50">
  <!-- Generator: Adobe Illustrator 29.5.1, SVG Export Plug-In . SVG Version: 2.1.0 Build 141)  -->
  <defs>
    <style>
      .st0 {
        fill: #8e2c2d;
      }
    </style>
  </defs>
  <path class="st0" d="M31.46,23.8h-8.48c-.5,0-1.01-.02-1.36-.43-.5-.57-.46-1.17,0-1.77.91-1.2,1.78-2.43,2.72-3.6.49-.61.67-1.23.65-2-.04-1.87-.02-3.74-.01-5.6.01-3.28,2.08-5.36,5.34-5.37h9.65c2.89,0,5.02,2.12,5.03,5v8.56c0,3.04-2.13,5.18-5.2,5.2-2.78.02-5.55,0-8.33,0h0ZM25.06,21.2c.4.02.6.04.81.04h13.84c1.74,0,2.78-.98,2.81-2.73.04-2.75.04-5.49,0-8.24-.03-1.76-1.03-2.75-2.79-2.77-3.16-.04-6.32-.04-9.48,0-1.76.02-2.7,1.05-2.71,2.82,0,2.2-.02,4.41,0,6.61,0,.68-.19,1.26-.61,1.79-.61.77-1.18,1.56-1.87,2.48Z"/>
  <path class="st0" d="M18.6,26.23h8.4c.48,0,.94.04,1.31.38.54.47.58,1.13.07,1.81-.94,1.28-1.88,2.55-2.85,3.79-.37.48-.52.97-.52,1.57.03,1.97.02,3.94,0,5.91-.02,3.22-2.11,5.29-5.33,5.3h-9.65c-2.93,0-5.03-2.13-5.04-5.07v-8.48c0-3.05,2.12-5.19,5.18-5.21,2.8-.02,5.6,0,8.4,0h.03ZM24.93,28.84c-.39-.02-.6-.04-.8-.04h-13.84c-1.74,0-2.79.97-2.82,2.72-.04,2.75-.04,5.49,0,8.24.03,1.76,1.02,2.75,2.78,2.78,3.16.04,6.32.04,9.48,0,1.76-.02,2.71-1.05,2.72-2.81,0-2.2.02-4.41,0-6.61,0-.68.18-1.26.6-1.79.61-.77,1.18-1.57,1.87-2.48h.01Z"/>
  <path class="st0" d="M12.48,23.8h-5.52c-1.59,0-1.94-.34-1.93-1.9,0-1.06-.07-2.14.09-3.18.32-2.04,1.39-3.67,3.09-4.84.47-.32.54-.54.19-1.04-1.24-1.76-1.19-4.08.04-5.75,1.31-1.78,3.49-2.5,5.6-1.85,1.98.61,3.46,2.55,3.49,4.68.02,1.11-.32,2.15-1.01,3.05-.26.34-.26.53.13.8,2.36,1.64,3.44,3.93,3.4,6.78,0,.54.01,1.09,0,1.63-.03,1.1-.53,1.6-1.65,1.61-1.97.02-3.94,0-5.91,0h0ZM12.45,21.24h4.35c.36,0,.66-.03.69-.52.11-2.1-.56-3.85-2.41-4.96-1.6-.97-3.33-1.01-4.97-.11-1.85,1.02-2.61,2.71-2.65,4.78-.01.6.16.84.79.82,1.4-.04,2.8-.01,4.2-.01ZM10.07,9.94c-.03,1.4,1.02,2.52,2.37,2.56,1.36.04,2.55-1.12,2.55-2.49s-1.13-2.46-2.49-2.47c-1.35,0-2.41,1.04-2.43,2.4Z"/>
  <path class="st0" d="M37.53,45h-6.07c-.87,0-1.37-.33-1.43-1.11-.16-2.26-.21-4.52,1.09-6.55.58-.91,1.29-1.7,2.2-2.27.45-.28.44-.48.13-.9-1.22-1.68-1.27-3.86-.18-5.56,1.11-1.74,3.09-2.62,5.08-2.27,2.07.37,3.64,1.86,4.05,3.91.28,1.38.04,2.7-.79,3.85-.33.46-.33.67.16,1.03,2.11,1.52,3.26,3.57,3.21,6.22v2.26c-.02.96-.43,1.38-1.38,1.38h-6.07,0ZM37.53,42.55h4.28c.34,0,.69.04.72-.47.19-3.54-2.16-5.78-5.11-5.79-3,0-5.37,2.85-4.91,5.79.08.5.4.46.73.46h4.29ZM37.49,33.71c1.43,0,2.45-1.01,2.45-2.43s-1.07-2.48-2.44-2.48-2.48,1.11-2.48,2.46,1.09,2.45,2.47,2.45Z"/>
  <path class="st0" d="M35,8.77c2.01,0,3.66,1.56,3.74,3.52.09,2.09-1.4,3.77-3.48,3.93-.8.06-1.37-.34-1.48-1.04-.11-.69.33-1.28,1.12-1.41.68-.11,1.2-.36,1.27-1.12.06-.66-.22-1.11-.86-1.29-.63-.17-1.23.14-1.46.73-.06.17-.07.35-.1.53-.16.77-.72,1.19-1.45,1.09-.66-.09-1.09-.68-1.05-1.41.11-1.98,1.76-3.53,3.74-3.53h0Z"/>
  <path class="st0" d="M36.25,18.74c.02.66-.53,1.24-1.2,1.27-.67.03-1.29-.58-1.29-1.27,0-.65.59-1.23,1.24-1.23s1.23.57,1.24,1.23h0Z"/>
  <path class="st0" d="M15,34.4h-3.5c-.93,0-1.48-.49-1.49-1.24,0-.75.52-1.28,1.45-1.29,2.36-.03,4.72-.03,7.08,0,.88,0,1.48.59,1.46,1.3-.02.74-.59,1.23-1.5,1.24h-3.5Z"/>
  <path class="st0" d="M13.09,39.38c-.62,0-1.24.03-1.86,0-.7-.04-1.2-.53-1.21-1.17-.01-.69.33-1.17,1.01-1.26,1.39-.19,2.79-.18,4.17,0,.68.08,1.02.58,1.03,1.26,0,.64-.51,1.15-1.2,1.18-.64.03-1.29,0-1.94,0h0Z"/>
</svg>