<?xml version="1.0" encoding="UTF-8"?>
<svg id="menu" xmlns="http://www.w3.org/2000/svg" version="1.1" viewBox="0 0 50 50">
  <!-- Generator: Adobe Illustrator 29.5.1, SVG Export Plug-In . SVG Version: 2.1.0 Build 141)  -->
  <defs>
    <style>
      .st0 {
        fill: #8e2c2d;
      }
    </style>
  </defs>
  <path class="st0" d="M5.03,24.94v-13.48c0-3.83,2.42-6.39,6.25-6.42,9.14-.05,18.28-.05,27.42,0,3.82.02,6.26,2.59,6.26,6.43v27.08c0,3.82-2.33,6.35-6.16,6.39-9.22.08-18.43.08-27.65,0-3.84-.04-6.12-2.56-6.13-6.4-.01-4.53,0-9.06,0-13.6h.01ZM9.56,25.01v13.49c0,1.7.36,2.07,2.06,2.08h26.75c1.69,0,2.04-.37,2.04-2.09V11.51c0-1.73-.2-1.93-1.99-1.93H11.56c-1.79,0-1.99.22-1.99,2.06v13.37s-.01,0-.01,0Z"/>
  <path class="st0" d="M27.27,25.12v8.16c0,.61-.05,1.21-.28,1.78-.35.88-1.07,1.28-1.95,1.3-.88.02-1.62-.35-2.01-1.21-.27-.6-.33-1.23-.32-1.88v-16.65c0-.53.01-1.06.22-1.56.39-.94,1.11-1.43,2.11-1.41,1.01.02,1.7.56,2.02,1.53.18.54.2,1.11.2,1.68v8.27h.01Z"/>
  <path class="st0" d="M18.69,29.36c0,1.55.02,3.09,0,4.64-.03,1.43-.93,2.38-2.19,2.38s-2.17-.95-2.18-2.39c-.03-3.17-.02-6.34,0-9.51,0-1.43.94-2.41,2.17-2.39,1.28.02,2.17.96,2.2,2.39.03,1.62,0,3.24,0,4.87h0Z"/>
  <path class="st0" d="M31.33,32.09c0-.75-.04-1.51.01-2.26.07-1.18.89-1.96,2.03-2.02,1.08-.06,2.05.58,2.21,1.69.25,1.71.22,3.46.02,5.18-.13,1.07-1.17,1.76-2.21,1.7-1.08-.06-1.89-.82-2.04-1.92-.01-.07-.02-.15-.02-.23v-2.15h0Z"/>
</svg>