<?xml version="1.0" encoding="UTF-8"?>
<svg id="general" xmlns="http://www.w3.org/2000/svg" version="1.1" viewBox="0 0 50 50">
  <!-- Generator: Adobe Illustrator 29.5.1, SVG Export Plug-In . SVG Version: 2.1.0 Build 141)  -->
  <defs>
    <style>
      .st0 {
        fill: #8e2c2d;
      }
    </style>
  </defs>
  <path class="st0" d="M30.56,10.59h-11.25c-1.81,0-1.92.19-2.04,1.96-.04.6.58,1.74-.77,1.71-2.44-.05-2.82-.36-2.83-1.91-.02-3.44,1.79-5.38,5.22-5.39,7.8-.04,15.6-.04,23.39,0,3.33.02,5.2,1.97,5.21,5.3v18.66c0,3.49-1.8,5.29-5.26,5.29-4.82,0-9.63-.04-14.45.03-1.21.02-2.06-.27-2.53-1.42-.29-.7-1.44-1.26-1.12-1.83.36-.64,1.49-.23,2.27-.24,5.2-.03,10.4,0,15.6-.02,1.64,0,1.85-.21,1.86-1.84V12.35c0-1.54-.23-1.77-1.8-1.77-3.84-.01-7.67,0-11.51,0h.01Z"/>
  <path class="st0" d="M13.73,43.07H5.56c-2.6,0-3.39-.95-2.95-3.48.82-4.77,4.51-7.87,9.37-7.89,1.45,0,2.89-.03,4.34,0,4.42.11,8.4,3.93,8.69,8.34.15,2.19-.54,2.99-2.73,3.01-2.85.03-5.7,0-8.55,0,0,0,0,.02,0,.02ZM13.78,39.42c2.08,0,4.16-.02,6.24,0,1.06,0,1.18-.46.7-1.26-1.08-1.81-2.68-2.84-4.77-2.96-1.48-.09-2.98-.1-4.46,0-1.97.15-3.56,1.07-4.59,2.81-.68,1.16-.55,1.38.75,1.39h6.12v.02h0Z"/>
  <path class="st0" d="M7.01,22.8c0-3.78,3.01-6.83,6.78-6.86,3.58-.03,6.8,3.14,6.85,6.73.05,3.72-3.04,6.86-6.77,6.89-3.78.02-6.85-3-6.86-6.75h0ZM10.65,22.75c-.02,1.85,1.35,3.28,3.15,3.28s3.21-1.48,3.2-3.3c0-1.75-1.39-3.14-3.15-3.18-1.89-.04-3.19,1.25-3.2,3.19h0Z"/>
  <path class="st0" d="M39.59,19.24v2.81c0,.55-.22,1.01-.75,1.23-.55.23-.98-.03-1.4-.37-1.24-1.02-2.42-.97-3.55.16-.99.99-1.97,2.01-2.99,2.97-1.02.97-1.89.96-2.91-.02-1.38-1.33-2.74-2.69-4.07-4.07-.89-.92-.92-1.84-.2-2.6.76-.81,1.71-.77,2.7.15.84.79,1.65,1.61,2.44,2.44.41.43.74.45,1.17,0,.82-.86,1.66-1.71,2.53-2.53.53-.5.52-.91,0-1.38-.38-.34-.75-.7-1.07-1.1-.73-.92-.36-1.97.81-2.03,2.04-.1,4.09-.06,6.13,0,.83.02,1.16.62,1.17,1.4v2.94h-.01Z"/>
</svg>