<?xml version="1.0" encoding="UTF-8"?>
<svg id="general" xmlns="http://www.w3.org/2000/svg" version="1.1" viewBox="0 0 50 50">
  <!-- Generator: Adobe Illustrator 29.5.1, SVG Export Plug-In . SVG Version: 2.1.0 Build 141)  -->
  <defs>
    <style>
      .st0 {
        fill: #8e2c2d;
      }
    </style>
  </defs>
  <path class="st0" d="M11.1,29.6c-2.13,0-4.26.02-6.39,0-1.74-.02-2.4-.8-2.16-2.5.53-3.81,3.58-6.55,7.44-6.58,1.74-.01,3.49-.22,5.21.28.77.22,1.04.59,1.01,1.46-.09,2.36.51,4.55,2.14,6.37.19.21.55.41.43.72-.15.41-.59.24-.9.25-2.26.01-4.51,0-6.77,0h-.01Z"/>
  <path class="st0" d="M38.76,29.6h-6.77c-.27,0-.68.13-.75-.26-.04-.18.19-.45.35-.63,1.7-1.88,2.28-4.14,2.21-6.6-.02-.51,0-.87.54-1.15,3.11-1.6,9.33-.3,11.56,2.43.95,1.16,1.43,2.51,1.58,3.98.15,1.43-.51,2.2-1.95,2.22-2.26.04-4.51,0-6.77.01Z"/>
  <path class="st0" d="M38.44,18.35c-3.16,0-5.76-2.53-5.75-5.61,0-3.06,2.66-5.7,5.73-5.7s5.72,2.62,5.75,5.68c.02,3.11-2.53,5.62-5.72,5.63h0Z"/>
  <path class="st0" d="M12.61,18.35c-3.18-.01-5.62-2.53-5.58-5.75.04-3.03,2.64-5.59,5.7-5.57,3.1.01,5.68,2.63,5.66,5.76-.02,3.14-2.55,5.58-5.78,5.56Z"/>
  <g>
    <path class="st0" d="M24.97,42.97h-9.44c-1.96,0-2.56-.65-2.38-2.57.42-4.58,3.92-8.07,8.53-8.49,2.34-.21,4.68-.2,7.02.03,4.42.44,8.15,4.57,8.2,9.07,0,1.24-.7,1.95-2.1,1.96-3.28.02-6.55,0-9.83,0ZM24.9,41.17h9.15c.64,0,.98-.17.89-.88-.33-2.63-1.72-4.51-4.02-5.76-.22-.12-.49-.27-.67.04-.13.23-.12.52.06.72.14.16.35.27.53.4,1.17.85,1.73,2.45,1.37,3.85-.15.6-.55.85-1.11.88-.55.03-1.14.04-1.44-.55-.26-.51,0-.88.41-1.25.48-.42.24-.9-.13-1.25-.45-.45-1.01-.46-1.47-.04-.4.36-.66.85-.14,1.32.44.4.66.84.28,1.34-.4.52-1.01.49-1.6.38-.54-.1-.84-.44-.89-.99-.14-1.56.1-2.97,1.62-3.82.58-.33.52-.84.44-1.35-.09-.59-.59-.5-.99-.5h-3.66c-.95,0-1.39.69-.95,1.51.13.24.4.4.62.58,1.18.96,1.3,2.64.27,3.76-.97,1.06-2.69,1.1-3.72.09-1.07-1.05-1.03-2.78.1-3.77.17-.15.37-.25.53-.41.38-.36.37-.87.18-1.25-.23-.45-.64-.09-.92.03-2.58,1.07-4.09,3.01-4.61,5.74-.2,1.05-.1,1.18.98,1.18,0,0,8.89,0,8.89,0Z"/>
    <path class="st0" d="M31.76,22.67c0,3.76-3.02,6.78-6.78,6.79-3.78.01-6.81-3.06-6.8-6.89,0-3.76,3.06-6.8,6.8-6.79,3.8,0,6.79,3.05,6.79,6.89h-.01ZM29.94,22.67c.02-2.69-2.25-5.03-4.9-5.06-2.72-.03-5.05,2.3-5.05,5.02s2.24,4.94,4.97,5.01c2.61.07,4.96-2.28,4.98-4.97Z"/>
  </g>
</svg>