<?xml version="1.0" encoding="UTF-8"?>
<svg id="Capa_5" xmlns="http://www.w3.org/2000/svg" version="1.1" viewBox="0 0 50 50">
  <!-- Generator: Adobe Illustrator 29.5.1, SVG Export Plug-In . SVG Version: 2.1.0 Build 141)  -->
  <defs>
    <style>
      .st0 {
        fill: #8e2c2d;
      }
    </style>
  </defs>
  <path class="st0" d="M24.86,44.98c-3.61,0-7.21,0-10.82,0-3.95-.02-6.55-2.6-6.58-6.55-.03-4.19,0-8.37-.02-12.56,0-.34.2-.83-.23-1-.32-.13-.57.26-.84.44-.03.02-.06.05-.1.08-1.49,1.13-2.47,1.21-3.27.26-.87-1.03-.63-2.08.79-3.28,6.51-5.53,13.02-11.05,19.53-16.56,1.24-1.05,2.12-1.04,3.42.06,3.54,3,7.07,6.02,10.6,9.02.3.25.56.77,1.01.55.37-.18.19-.68.19-1.03.02-1.49,0-2.99.02-4.48.03-1.5.77-2.37,1.97-2.38s1.98.83,2.01,2.35c.05,2.74.04,5.47,0,8.21,0,.86.23,1.48.94,2.02,1.06.8,2.04,1.69,3.05,2.55,1.08.93,1.25,2.01.48,2.94-.72.87-1.75.89-2.89.12-.46-.31-.85-1.07-1.41-.76-.4.22-.15,1.01-.15,1.54,0,3.77,0,7.54,0,11.32,0,4.67-2.5,7.16-7.14,7.16h-10.57v-.02ZM38.56,30.32v-8.08c0-.69-.11-1.28-.68-1.77-4.03-3.38-8.05-6.78-12.05-10.19-.61-.52-1.05-.58-1.7-.02-3.86,3.32-7.75,6.62-11.66,9.88-.73.61-1.04,1.28-1.03,2.24.04,4.76.02,9.53.02,14.29,0,4.21.27,4.44,4.53,4.44,1.09,0,1.45-.33,1.43-1.42-.06-3.19-.02-6.38-.02-9.57,0-2.81,1.13-3.96,3.89-3.96h7.46c2.58,0,3.83,1.23,3.85,3.79.02,2.69-.02,5.39,0,8.08.04,3.56-.51,3.02,3.12,3.04,1.94,0,2.8-.86,2.81-2.81.02-2.65,0-5.3,0-7.96l.02.02ZM28.61,35.63c0-1.49-.02-2.98,0-4.47.02-.78-.26-1.13-1.08-1.11-1.66.04-3.31.04-4.97,0-.89-.02-1.15.37-1.15,1.19.02,2.9.02,5.8,0,8.7,0,.84.29,1.2,1.16,1.18,1.61-.04,3.23-.05,4.84,0,.95.03,1.22-.38,1.2-1.26-.04-1.41-.01-2.82-.01-4.22h0Z"/>
</svg>