<?xml version="1.0" encoding="UTF-8"?>
<svg id="general" xmlns="http://www.w3.org/2000/svg" version="1.1" viewBox="0 0 50 50">
  <!-- Generator: Adobe Illustrator 29.5.1, SVG Export Plug-In . SVG Version: 2.1.0 Build 141)  -->
  <defs>
    <style>
      .st0 {
        fill: #8e2c2d;
      }
    </style>
  </defs>
  <path class="st0" d="M24.94,45h-15.26c-3.9,0-6.06-2.18-6.07-6.09v-19.9c0-3.82,2.2-5.99,6.02-6.01,1.02,0,2.04-.08,3.05.02,1.28.12,1.66-.44,1.55-1.61-.06-.61-.03-1.24,0-1.86.17-2.57,1.96-4.43,4.53-4.48,4.11-.08,8.23-.08,12.34,0,2.75.05,4.48,1.99,4.63,4.97.1,1.97,1.14,2.96,3.11,2.96h1.73c3.31.04,5.71,2.22,5.75,5.51.08,6.99.08,13.98,0,20.97-.04,3.29-2.44,5.51-5.74,5.52-5.22.02-10.44,0-15.66,0,0,0,.02,0,.02,0ZM24.95,40.86h15.26c1.48,0,1.86-.35,1.87-1.77.03-2.48-.02-4.95.02-7.43.02-1.02-.42-1.28-1.36-1.27-2.96.04-5.93.05-8.89,0-1.01-.02-1.38.31-1.48,1.33-.19,1.86-1.14,2.63-3.01,2.66-1.64.03-3.27.03-4.91,0-1.83-.03-2.81-.9-2.9-2.73-.05-1.02-.45-1.27-1.38-1.25-2.96.04-5.93.06-8.89,0-1.15-.02-1.44.44-1.42,1.49.05,2.3,0,4.6.02,6.9,0,1.81.27,2.08,2.07,2.08h15ZM25.01,26.26c5.22,0,10.44-.03,15.66.02,1.11,0,1.48-.37,1.44-1.46-.06-1.94,0-3.89-.03-5.84-.02-1.47-.37-1.85-1.79-1.85-10.22-.01-20.43,0-30.65-.01-1.22,0-1.78.51-1.76,1.75.04,1.95.07,3.89-.01,5.84-.05,1.24.42,1.58,1.62,1.57,5.17-.05,10.35-.02,15.52-.02ZM24.95,12.99c1.77,0,3.53-.03,5.3.01.93.03,1.3-.35,1.23-1.25-.03-.35-.03-.71,0-1.06.11-1.15-.39-1.56-1.54-1.54-3.09.05-6.18.02-9.27.02-2.18,0-2.19.01-2.16,2.23v.13c-.11,1.06.28,1.53,1.42,1.48,1.67-.08,3.36-.02,5.03-.02h0Z"/>
</svg>