<?xml version="1.0" encoding="UTF-8"?>
<svg id="Capa_5" xmlns="http://www.w3.org/2000/svg" version="1.1" viewBox="0 0 50 50">
  <!-- Generator: Adobe Illustrator 29.5.1, SVG Export Plug-In . SVG Version: 2.1.0 Build 141)  -->
  <defs>
    <style>
      .st0 {
        fill: #8e2c2d;
      }
    </style>
  </defs>
  <path class="st0" d="M40.32,28.02v-10.64c0-3.61-1.99-5.98-5.29-6.35-.15-.02-.18-.06-.2-.11-.7-1.38-1.93-2.15-3.65-2.29-.14-.01-.17-.01-.27-.22-1.06-2.02-3.24-3.33-5.68-3.4-2.42-.07-4.61,1.04-5.8,2.99-.31.51-.57.69-1.07.74-1.25.11-2.27.79-2.95,1.96-.13.21-.25.32-.63.38-2.38.38-4.01,1.77-4.7,4.03-.24.78-.26,1.56-.26,2.29v20.72c0,.67.02,1.26.08,1.81.27,2.82,2.64,5.04,5.4,5.05,3.08,0,6.17.02,9.23.02,3.49,0,6.96,0,10.36-.02,1.52,0,2.9-.68,4-1.94,1.26-1.45,1.44-3.2,1.44-4.56.02-2.49,0-4.98,0-7.47v-2.99h-.02ZM18.4,41.08h-2.52c-1.44,0-2.09-.64-2.09-2.05v-22.05c0-1.15.39-1.56.81-1.77.14,2.19,1.4,3.4,3.58,3.41,3.39.03,6.77.02,10.15.01h3.49c.18,0,.37-.03.59-.06,1.96-.3,2.94-1.41,3-3.37.57.28.81.71.81,1.44v14.54c0,2.63,0,5.25.02,7.88,0,.68-.14,1.18-.45,1.49-.32.33-.85.49-1.58.5-5.27.03-10.54.02-15.81,0v.02ZM25.04,9.04c1.24,0,2.04.45,2.39,1.34.65,1.68,1.78,2.4,3.57,2.26.23-.02.32.02.34.03,0,0,.08.09.09.47v1.5h-12.83v-.51c0-.43-.02-.84.07-1.22.06-.24.11-.26.34-.28,1.83.23,3.04-.54,3.73-2.34.12-.31.47-1.25,2.3-1.25Z"/>
  <g>
    <path class="st0" d="M24.98,28.26c.43.01.86.01,1.29.01h5.05c.4,0,.75-.05,1.09-.15.86-.26,1.38-.95,1.41-1.88.03-.88-.48-1.58-1.35-1.87-.37-.13-.77-.19-1.18-.19h-6.01c-.46,0-.87.06-1.24.19-.87.31-1.36,1.04-1.31,1.97.06,1.16.93,1.89,2.26,1.93h-.01Z"/>
    <path class="st0" d="M31.58,31.48h-6.49c-.26,0-.56.01-.86.08-.97.21-1.52.91-1.52,1.9s.57,1.7,1.52,1.9c.3.06.63.1.98.1h6.11c.35,0,.77-.02,1.19-.18.63-.23,1.1-.75,1.24-1.39.14-.64-.05-1.31-.53-1.8-.61-.62-1.41-.62-1.67-.62h.03Z"/>
    <path class="st0" d="M18.89,30.86c-.7-.03-1.35.25-1.84.73-.48.47-.74,1.11-.75,1.78,0,1.52,1.04,2.59,2.53,2.6h.01c1.45,0,2.55-1.11,2.56-2.59,0-1.35-1.15-2.5-2.53-2.52h.02Z"/>
    <path class="st0" d="M18.81,28.78h.02c.67,0,1.33-.28,1.83-.78s.76-1.13.75-1.77c-.01-1.34-1.15-2.51-2.48-2.56-.7-.02-1.34.22-1.83.69-.5.47-.77,1.11-.78,1.81-.01.7.25,1.36.73,1.85.47.48,1.1.75,1.77.75h-.01Z"/>
  </g>
  <path class="st0" d="M25.02,13.8h.03c1.05-.02,1.93-.89,1.95-1.93.01-.53-.19-1.04-.56-1.42-.37-.38-.87-.59-1.4-.59h0c-.54,0-1.04.2-1.39.56-.36.36-.55.87-.55,1.44,0,.52.23,1.04.61,1.41.36.35.82.54,1.3.54h0Z"/>
</svg>