<?xml version="1.0" encoding="UTF-8"?>
<svg id="general" xmlns="http://www.w3.org/2000/svg" version="1.1" viewBox="0 0 50 50">
  <!-- Generator: Adobe Illustrator 29.5.1, SVG Export Plug-In . SVG Version: 2.1.0 Build 141)  -->
  <defs>
    <style>
      .st0 {
        fill: #8e2c2d;
      }
    </style>
  </defs>
  <path class="st0" d="M16.47,40.39c0-1.17-.06-2.34.01-3.5.06-1-.35-1.51-1.26-1.87-3.42-1.37-6.8-2.83-10.22-4.21-1.35-.55-2.37-1.34-2.5-2.88-.13-1.61.94-2.39,2.18-3.1,12.6-7.18,25.2-14.38,37.78-21.59,1.22-.7,2.4-1.05,3.67-.22,1.3.86,1.51,2.08,1.28,3.56-1.82,11.7-3.6,23.41-5.4,35.12-.39,2.52-2.22,3.57-4.6,2.61-2.98-1.21-5.95-2.45-8.9-3.74-1.02-.45-1.67-.32-2.38.6-1.29,1.71-2.73,3.31-4.1,4.96-.91,1.1-2.02,1.65-3.46,1.2-1.28-.41-2.07-1.6-2.1-3.14-.02-1.26,0-2.52,0-3.78,0,0,0-.02,0-.02ZM41.6,13.94c-.39-.07-.53.14-.68.31-5.57,6.21-11.12,12.43-16.7,18.63-.65.72-.34.98.37,1.27,3.96,1.63,7.92,3.27,11.87,4.96,1.06.45,1.39.09,1.55-.94,1.09-7.14,2.23-14.27,3.31-21.41.14-.93.48-1.87.29-2.82,0,0,0,0-.01,0ZM37.02,11.99c-.06-.08-.12-.15-.18-.23-.13.03-.27.03-.38.09-8.88,5.05-17.75,10.1-26.62,15.15-.24.13-.58.25-.53.57.05.38.45.43.74.55,2.71,1.13,5.43,2.24,8.13,3.38.7.3,1.16.22,1.69-.38,3.87-4.35,7.79-8.67,11.68-13.01,1.83-2.04,3.64-4.09,5.46-6.13h.01Z"/>
</svg>