<?xml version="1.0" encoding="UTF-8"?>
<svg id="Capa_5" xmlns="http://www.w3.org/2000/svg" version="1.1" viewBox="0 0 50 50">
  <!-- Generator: Adobe Illustrator 29.5.1, SVG Export Plug-In . SVG Version: 2.1.0 Build 141)  -->
  <defs>
    <style>
      .st0 {
        fill: #8e2c2d;
      }
    </style>
  </defs>
  <path class="st0" d="M19.36,8.59c4.53,0,8.21,3.67,8.21,8.21s-3.67,8.21-8.21,8.21-8.21-3.67-8.21-8.21,3.67-8.21,8.21-8.21ZM16.43,28.08h5.86c.76,0,1.5.08,2.21.21-.13,1.19.47,2.28,1.4,2.87-1.06.68-1.71,2.03-1.28,3.42.26.83.6,1.63,1.05,2.41s.97,1.48,1.56,2.12c1.01,1.08,2.54,1.18,3.67.56v.06c0,.59.17,1.19.51,1.69H6.9c-1.05,0-1.9-.85-1.9-1.9,0-6.31,5.12-11.43,11.43-11.43h0ZM32.95,22.58c0-.45.29-.85.72-.95.67-.15,1.38-.24,2.1-.24s1.42.08,2.1.24c.44.1.72.5.72.95v1.13c0,.5.31.95.74,1.2.44.25.97.29,1.4.04l.88-.51c.39-.22.88-.17,1.19.15.49.52.92,1.1,1.29,1.74s.66,1.31.87,1.99c.13.43-.07.88-.46,1.1l-.92.53c-.42.24-.64.7-.64,1.18s.22.94.64,1.18l.92.53c.39.22.59.67.46,1.1-.21.68-.5,1.35-.87,1.99s-.8,1.22-1.29,1.74c-.31.33-.8.38-1.19.15l-.88-.51c-.43-.25-.97-.21-1.4.04-.44.25-.74.7-.74,1.2v1.13c0,.45-.29.85-.72.95-.67.15-1.38.24-2.1.24s-1.42-.08-2.1-.24c-.44-.1-.72-.5-.72-.95v-1.13c0-.51-.31-.96-.75-1.21-.44-.25-.97-.29-1.41-.04l-.87.5c-.39.22-.88.17-1.19-.15-.49-.52-.92-1.1-1.29-1.74s-.66-1.31-.87-1.99c-.13-.43.07-.88.46-1.1l.9-.52c.42-.24.65-.71.65-1.19s-.22-.95-.65-1.19l-.9-.52c-.39-.22-.59-.67-.46-1.1.21-.68.49-1.35.87-1.99s.8-1.22,1.29-1.74c.31-.33.79-.38,1.19-.15l.87.5c.44.25.97.21,1.41-.04.44-.25.75-.71.75-1.21v-1.1h0ZM38.86,31.14c.08-1.7-1.24-3.14-2.94-3.22-1.7-.08-3.14,1.24-3.22,2.94v.28c-.08,1.7,1.24,3.14,2.94,3.22,1.7.08,3.14-1.24,3.22-2.94v-.28Z"/>
</svg>