<?xml version="1.0" encoding="UTF-8"?>
<svg id="Capa_5" xmlns="http://www.w3.org/2000/svg" version="1.1" viewBox="0 0 50 50">
  <!-- Generator: Adobe Illustrator 29.5.1, SVG Export Plug-In . SVG Version: 2.1.0 Build 141)  -->
  <defs>
    <style>
      .st0 {
        fill: #8e2c2d;
      }
    </style>
  </defs>
  <path class="st0" d="M40.08,24.99v14.06c0,3.88-2.06,5.94-5.89,5.94H15.65c-3.67,0-5.72-2.03-5.73-5.68V10.69c0-3.66,2.04-5.69,5.71-5.69h18.66c3.68,0,5.77,2.1,5.78,5.8,0,4.73,0,9.46,0,14.18h.01ZM36.06,24.99v-14.18c0-1.61-.3-1.91-1.87-1.92-.91-.01-1.83.05-2.74-.02-.94-.06-1.31.26-1.4,1.24-.15,1.61-.98,2.43-2.44,2.48-1.78.07-3.57.05-5.35,0-1.15-.03-1.95-.67-2.28-1.79-.57-1.91-.56-1.92-2.6-1.92h-1.37c-1.87.01-2.09.21-2.09,2.06v28.11c0,1.84.22,2.04,2.1,2.05h17.91c1.89,0,2.11-.23,2.11-2.18v-13.93h.02Z"/>
  <path class="st0" d="M24.89,37.52c-2.28,0-4.56.02-6.84,0-1.55,0-2.07-.67-1.83-2.22.49-3.17,2.94-5.32,6.18-5.39,1.7-.03,3.4-.03,5.1,0,3.34.07,5.71,2.16,6.23,5.46.24,1.5-.25,2.13-1.75,2.14-2.36.03-4.73,0-7.09,0h0Z"/>
  <path class="st0" d="M25.05,27.56c-2.79.03-5.12-2.21-5.16-4.97-.04-2.77,2.22-5.08,5-5.13,2.72-.04,5.14,2.26,5.21,4.97.06,2.66-2.34,5.1-5.05,5.13Z"/>
</svg>