<?xml version="1.0" encoding="UTF-8"?>
<svg id="Capa_1" data-name="Capa 1" xmlns="http://www.w3.org/2000/svg" viewBox="0 0 62 62.5">
  <defs>
    <style>
      .cls-1 {
        fill: #8d3532;
      }

      .cls-2 {
        fill: #1a1a1a;
        font-family: Montserrat-Light, Montserrat;
        font-size: 8px;
        font-weight: 300;
      }

      .cls-3 {
        letter-spacing: 0em;
      }
    </style>
  </defs>
  <path class="cls-1" d="M26.98,19.68h13.55c.34,0,.62.29.62.64v9c0,.35-.28.64-.62.64h-.82l-3.95-6.31c-.17-.27-.46-.44-.77-.44s-.6.16-.77.44l-2.01,3.21-.48-.68c-.17-.25-.45-.39-.75-.39s-.57.14-.75.39l-2.65,3.78h-.6c-.34,0-.62-.29-.62-.64v-9c0-.35.28-.64.62-.64ZM24.52,20.32v9c0,1.42,1.11,2.57,2.46,2.57h13.55c1.36,0,2.46-1.15,2.46-2.57v-9c0-1.42-1.11-2.57-2.46-2.57h-13.55c-1.36,0-2.46,1.15-2.46,2.57ZM22.67,21.29c0-.53-.41-.96-.92-.96s-.92.43-.92.96v9c0,3.02,2.35,5.46,5.24,5.46h12.32c.51,0,.92-.43.92-.96s-.41-.96-.92-.96h-12.32c-1.87,0-3.39-1.58-3.39-3.54v-9ZM30.68,22.25c0-.71-.55-1.29-1.23-1.29s-1.23.58-1.23,1.29.55,1.29,1.23,1.29,1.23-.58,1.23-1.29Z"/>
  <text class="cls-2" transform="translate(15.69 49.78)"><tspan x="0" y="0">Im</tspan><tspan class="cls-3" x="10.87" y="0">a</tspan><tspan x="15.54" y="0">gen</tspan></text>
</svg>