<?xml version="1.0" encoding="UTF-8"?>
<svg id="Capa_1" data-name="Capa 1" xmlns="http://www.w3.org/2000/svg" viewBox="0 0 62 62.5">
  <defs>
    <style>
      .cls-1, .cls-2 {
        fill: none;
      }

      .cls-2 {
        stroke: #8e2c2d;
      }

      .cls-2, .cls-3 {
        stroke-miterlimit: 10;
      }

      .cls-4 {
        fill: #1a1a1a;
        font-size: 8px;
      }

      .cls-4, .cls-5 {
        font-family: Montserrat-Light, Montserrat;
        font-weight: 300;
      }

      .cls-6 {
        fill: #8e2c2d;
      }

      .cls-5 {
        font-size: 5px;
      }

      .cls-5, .cls-3 {
        fill: #fff;
      }

      .cls-3 {
        stroke: #333;
        stroke-width: .2px;
      }

      .cls-7 {
        letter-spacing: -.02em;
      }

      .cls-8 {
        letter-spacing: -.05em;
      }
    </style>
  </defs>
  <rect class="cls-1" x="-.75" y="-1.25" width="64" height="65.7" rx="8" ry="8"/>
  <rect class="cls-3" x="10" y="18" width="42" height="19" rx="5" ry="5"/>
  <path class="cls-6" d="M33.73,34.79c.37-2.85,1.35-5.82,2.33-8.53.91-2.54,2.18-4.77,3.94-6.77v-.49h-24c-2.75,0-5,2.25-5,5v7c0,2.75,2.25,5,5,5h17.8c-.09-.39-.12-.79-.06-1.21Z"/>
  <g>
    <path class="cls-2" d="M40,28.5h8"/>
    <polyline class="cls-2" points="45.33 25.83 47.92 28.5 45.33 31.17"/>
  </g>
  <text class="cls-4" transform="translate(18.77 51.82)"><tspan x="0" y="0">Bo</tspan><tspan class="cls-7" x="10.98" y="0">t</tspan><tspan x="14.01" y="0">ón</tspan></text>
  <text class="cls-5" transform="translate(19.76 28.53)"><tspan class="cls-8" x="0" y="0">V</tspan><tspan x="3.16" y="0">er</tspan></text>
</svg>