<?xml version="1.0" encoding="UTF-8"?>
<svg id="Capa_1" data-name="Capa 1" xmlns="http://www.w3.org/2000/svg" viewBox="0 0 62 62.5">
  <defs>
    <style>
      .cls-1 {
        fill: #8d3532;
      }

      .cls-2 {
        fill: #1a1a1a;
        font-family: Montserrat-Light, Montserrat;
        font-size: 8px;
        font-weight: 300;
      }
    </style>
  </defs>
  <path class="cls-1" d="M19,25.27c0-2.49-2.06-4.52-4.6-4.52s-4.6,2.02-4.6,4.52c0,2.12,1.49,3.9,3.49,4.38v-3h-.95v-1.38h.95v-.59c0-1.54.71-2.25,2.25-2.25.29,0,.79.06,1,.11v1.25c-.11-.01-.3-.02-.53-.02-.75,0-1.05.28-1.05,1.01v.49h1.5l-.26,1.38h-1.25v3.1c2.28-.27,4.04-2.17,4.04-4.48h0Z"/>
  <path class="cls-1" d="M26.28,22.94c-1.34,0-2.42,1.03-2.42,2.31s1.08,2.31,2.42,2.31,2.42-1.03,2.42-2.31-1.08-2.31-2.42-2.31ZM26.28,26.75c-.87,0-1.57-.67-1.57-1.5s.71-1.5,1.57-1.5,1.57.67,1.57,1.5-.71,1.5-1.57,1.5h0ZM29.37,22.85c0,.3-.25.54-.56.54s-.56-.24-.56-.54.25-.54.56-.54.56.24.56.54ZM30.97,23.39c-.04-.72-.21-1.36-.76-1.89-.55-.53-1.22-.69-1.98-.73-.78-.04-3.11-.04-3.89,0-.75.03-1.42.2-1.98.72s-.72,1.16-.76,1.89c-.04.74-.04,2.97,0,3.71.04.72.21,1.36.76,1.89.55.53,1.22.69,1.98.73.78.04,3.11.04,3.89,0,.76-.03,1.42-.2,1.98-.73.55-.53.72-1.16.76-1.89.04-.74.04-2.97,0-3.71h0ZM29.96,27.9c-.16.39-.48.7-.9.86-.62.23-2.09.18-2.78.18s-2.16.05-2.78-.18c-.41-.16-.73-.46-.9-.86-.25-.59-.19-2-.19-2.65s-.05-2.06.19-2.65c.16-.39.48-.7.9-.86.62-.23,2.09-.18,2.78-.18s2.16-.05,2.78.18c.41.16.73.46.9.86.25.59.19,2,.19,2.65s.06,2.06-.19,2.65Z"/>
  <path class="cls-1" d="M39.41,21.47h1.15l-2.51,3.08,2.96,4.2h-2.31l-1.81-2.55-2.07,2.55h-1.15l2.69-3.3-2.84-3.98h2.37l1.64,2.33,1.9-2.33ZM39,28.01h.64l-4.11-5.84h-.68l4.16,5.84Z"/>
  <path class="cls-1" d="M52,24.44c-.88,0-1.75-.24-2.47-.69v3.14c0,1.58-1.46,2.86-3.27,2.86-1.8,0-3.27-1.28-3.27-2.86,0-1.58,1.46-2.86,3.27-2.86.15,0,.3,0,.45.03v1.58c-.79-.22-1.63.17-1.88.86-.25.69.19,1.43.98,1.64.79.22,1.63-.17,1.88-.86.05-.13.07-.26.07-.39v-6.14h1.77c0,.13.01.26.04.39h0c.12.58.52,1.09,1.08,1.41.4.23.87.35,1.35.35v1.54Z"/>
  <text class="cls-2" transform="translate(18.17 45.35)"><tspan x="0" y="0">Redes </tspan><tspan x="-3.06" y="7">sociales</tspan></text>
</svg>