<?xml version="1.0" encoding="utf-8"?>
<!-- Generator: Adobe Illustrator 28.0.0, SVG Export Plug-In . SVG Version: 6.00 Build 0)  -->
<svg version="1.1" id="Capa_3" xmlns="http://www.w3.org/2000/svg" xmlns:xlink="http://www.w3.org/1999/xlink" x="0px" y="0px"
	 viewBox="0 0 50 50" style="enable-background:new 0 0 50 50;" xml:space="preserve">
<style type="text/css">
	.st0{fill:#FFFFFF;}
</style>
<g>
	<path class="st0" d="M45,25c0-10.5-7.6-18.9-18-20c-0.7-0.1-1.3-0.1-2-0.2c-1.7-0.2-2.6-1.1-2.5-2.5C22.6,0.9,23.6,0,25.3,0
		c2.1,0,4.1,0.3,6.2,0.8C42.2,3.7,50,13.8,50,25c0,12.2-9.2,22.9-21.3,24.7c-1.1,0.2-2.2,0.3-3.3,0.3c-1.7,0-2.8-0.9-2.8-2.3
		c-0.1-1.5,1-2.5,2.8-2.5c2.3-0.1,4.5-0.5,6.7-1.3C39.9,41,45,33.5,45,25"/>
	<g>
		<path class="st0" d="M34.3,27.8H9c-1.6,0-2.8-1.3-2.8-2.8s1.3-2.8,2.8-2.8h25.3c1.6,0,2.8,1.3,2.8,2.8S35.9,27.8,34.3,27.8z"/>
	</g>
	<g>
		<path class="st0" d="M21.7,40.5c-1.6,0-2.8-1.3-2.8-2.8V12.4c0-1.6,1.3-2.8,2.8-2.8s2.8,1.3,2.8,2.8v25.3
			C24.5,39.2,23.2,40.5,21.7,40.5z"/>
	</g>
</g>
</svg>
