<?xml version="1.0" encoding="UTF-8"?>
<svg id="Capa_1" data-name="Capa 1" xmlns="http://www.w3.org/2000/svg" viewBox="0 0 50 50">
  <defs>
    <style>
      .cls-1 {
        fill: #fff;
        stroke-width: 0px;
      }
    </style>
  </defs>
  <g>
    <path class="cls-1" d="m25,50C11.22,50,0,38.78,0,25S11.22,0,25,0s25,11.22,25,25c0,.93-.76,1.69-1.69,1.69s-1.69-.76-1.69-1.69c0-11.92-9.7-21.62-21.62-21.62S3.38,13.08,3.38,25s9.7,21.62,21.62,21.62c.93,0,1.69.76,1.69,1.69s-.76,1.69-1.69,1.69Z"/>
    <g>
      <path class="cls-1" d="m39.39,45.03c-.5,0-1-.22-1.33-.65-.58-.73-.45-1.8.28-2.37,1.15-.91,2.21-1.93,3.16-3.05h0c1.08-1.28,2.02-2.69,2.78-4.18.42-.83,1.44-1.16,2.27-.74s1.16,1.44.74,2.27c-.88,1.73-1.96,3.35-3.21,4.83h0c-1.09,1.3-2.32,2.48-3.65,3.53-.31.24-.68.36-1.04.36Z"/>
      <path class="cls-1" d="m34.15,48.15c-.44,0-.88-.2-1.18-.51-.17-.17-.27-.34-.37-.54s-.14-.44-.14-.64c0-.44.2-.88.51-1.22.14-.14.34-.27.54-.37.61-.24,1.39-.1,1.82.37.34.34.51.74.51,1.22,0,.2-.03.44-.14.64-.07.2-.2.37-.37.54-.14.17-.34.27-.54.37-.2.07-.41.14-.64.14Z"/>
    </g>
  </g>
  <path class="cls-1" d="m12.94,22.99c.81,0,1.34.32,1.8.79,1.95,2,3.91,3.99,5.86,6,.27.28.41.31.71.01,4.67-4.69,9.35-9.36,14.03-14.04.63-.63,1.36-.91,2.22-.66,1.49.44,1.91,2.21.85,3.42-.06.07-.13.14-.2.21-5.15,5.15-10.3,10.29-15.45,15.45-.73.73-1.55,1.04-2.56.67-.29-.11-.53-.3-.75-.51-2.59-2.58-5.18-5.16-7.75-7.75-1.2-1.21-.77-3.1.79-3.52.18-.05.38-.06.45-.07Z"/>
</svg>