<?xml version="1.0" encoding="UTF-8"?>
<svg id="Capa_1" xmlns="http://www.w3.org/2000/svg" version="1.1" viewBox="0 0 50 50">
  <!-- Generator: Adobe Illustrator 29.0.0, SVG Export Plug-In . SVG Version: 2.1.0 Build 186)  -->
  <defs>
    <style>
      .st0 {
        fill: #fff;
      }
    </style>
  </defs>
  <path class="st0" d="M17.96,12.71L3.44,27.22c-1.56,1.56-1.56,4.07,0,5.63l4.98,4.98c.75.75,1.76,1.16,2.82,1.16h6.55s.58,0,.58,0h13.35c1.1,0,1.99-.89,1.99-1.99s-.89-1.99-1.99-1.99h-7.72l8.13-8.13c1.56-1.56,1.56-4.07,0-5.63l-8.54-8.55c-1.56-1.56-4.07-1.56-5.63,0h0ZM18.37,35.02h-7.14l-4.98-4.98,7.76-7.76,8.55,8.55-4.19,4.19Z"/>
  <path class="st0" d="M43.27,24.71c0-9.85-7.25-17.83-17.06-18.79-.63-.06-1.26-.12-1.88-.19-1.59-.19-2.45-1.05-2.38-2.38.06-1.32,1.02-2.17,2.58-2.17,1.98,0,3.93.27,5.84.77,10.27,2.71,17.64,12.23,17.64,22.78,0,11.53-8.72,21.57-20.21,23.28-1.06.16-2.11.26-3.18.24-1.63-.03-2.63-.84-2.67-2.19-.05-1.39.96-2.31,2.65-2.36,2.19-.06,4.31-.46,6.35-1.21,7.44-2.72,12.33-9.78,12.32-17.78Z"/>
</svg>