<?xml version="1.0" encoding="UTF-8"?>
<svg id="Capa_1" xmlns="http://www.w3.org/2000/svg" version="1.1" viewBox="0 0 50 50">
  <!-- Generator: Adobe Illustrator 29.0.0, SVG Export Plug-In . SVG Version: 2.1.0 Build 186)  -->
  <defs>
    <style>
      .st0 {
        fill: #fff;
      }
    </style>
  </defs>
  <path class="st0" d="M43.27,24.71c0-9.85-7.25-17.83-17.06-18.79-.63-.06-1.26-.12-1.88-.19-1.59-.19-2.45-1.05-2.38-2.38.06-1.32,1.02-2.17,2.58-2.17,1.98,0,3.93.27,5.84.77,10.27,2.71,17.64,12.23,17.64,22.78,0,11.53-8.72,21.57-20.21,23.28-1.06.16-2.11.26-3.18.24-1.63-.03-2.63-.84-2.67-2.19-.05-1.39.96-2.31,2.65-2.36,2.19-.06,4.31-.46,6.35-1.21,7.44-2.72,12.33-9.78,12.32-17.78Z"/>
  <path class="st0" d="M31.37,17.58c1.01-1.01,1.01-2.64,0-3.65s-2.64-1.01-3.65,0l-8.49,8.5-8.5-8.49c-1.01-1.01-2.64-1.01-3.65,0s-1.01,2.64,0,3.65l8.5,8.49-8.49,8.5c-1.01,1.01-1.01,2.64,0,3.65s2.64,1.01,3.65,0l8.49-8.5,8.5,8.49c1.01,1.01,2.64,1.01,3.65,0s1.01-2.64,0-3.65l-8.5-8.49,8.49-8.5Z"/>
</svg>