<?xml version="1.0" encoding="UTF-8"?>
<svg id="Capa_1" xmlns="http://www.w3.org/2000/svg" version="1.1" viewBox="0 0 50 50">
  <!-- Generator: Adobe Illustrator 29.1.0, SVG Export Plug-In . SVG Version: 2.1.0 Build 142)  -->
  <defs>
    <style>
      .st0 {
        fill: #fff;
      }
    </style>
  </defs>
  <path class="st0" d="M18.3,6.8c1.2,0,2.2,1,2.2,2.2v2.2h9v-2.2c0-1.2,1-2.2,2.2-2.2s2.2,1,2.2,2.2v2.2h3.4c1.9,0,3.4,1.5,3.4,3.4v3.4H9.3v-3.4c0-1.9,1.5-3.4,3.4-3.4h3.4v-2.2c0-1.2,1-2.2,2.2-2.2ZM9.3,20.2h31.4v19c0,1.9-1.5,3.4-3.4,3.4H12.7c-1.9,0-3.4-1.5-3.4-3.4v-19ZM13.8,25.8v2.2c0,.6.5,1.1,1.1,1.1h2.2c.6,0,1.1-.5,1.1-1.1v-2.2c0-.6-.5-1.1-1.1-1.1h-2.2c-.6,0-1.1.5-1.1,1.1ZM22.8,25.8v2.2c0,.6.5,1.1,1.1,1.1h2.2c.6,0,1.1-.5,1.1-1.1v-2.2c0-.6-.5-1.1-1.1-1.1h-2.2c-.6,0-1.1.5-1.1,1.1ZM32.8,24.7c-.6,0-1.1.5-1.1,1.1v2.2c0,.6.5,1.1,1.1,1.1h2.2c.6,0,1.1-.5,1.1-1.1v-2.2c0-.6-.5-1.1-1.1-1.1h-2.2ZM13.8,34.8v2.2c0,.6.5,1.1,1.1,1.1h2.2c.6,0,1.1-.5,1.1-1.1v-2.2c0-.6-.5-1.1-1.1-1.1h-2.2c-.6,0-1.1.5-1.1,1.1ZM23.9,33.7c-.6,0-1.1.5-1.1,1.1v2.2c0,.6.5,1.1,1.1,1.1h2.2c.6,0,1.1-.5,1.1-1.1v-2.2c0-.6-.5-1.1-1.1-1.1h-2.2ZM31.7,34.8v2.2c0,.6.5,1.1,1.1,1.1h2.2c.6,0,1.1-.5,1.1-1.1v-2.2c0-.6-.5-1.1-1.1-1.1h-2.2c-.6,0-1.1.5-1.1,1.1Z"/>
</svg>