<svg xmlns="http://www.w3.org/2000/svg" viewBox="0 0 40 40">
  <defs>
    <style>
      .a {
        fill: #fff;
      }
    </style>
  </defs>
  <g>
    <path class="a" d="M11.77,31.86c0-1.37,0-2.74,0-4.11,0-.43-.14-.57-.57-.57-1.34,0-2.67,0-4,0A4.16,4.16,0,0,1,3,23.76,3.93,3.93,0,0,1,4,20c3.13-3.13,6.27-6.24,9.37-9.39C14.6,9.37,15.81,8.17,17,7a4.23,4.23,0,0,1,6,0c2.47,2.44,4.91,4.91,7.36,7.36C32.16,16.17,34,18,35.74,19.75a4.24,4.24,0,0,1,.57,5.6,4.14,4.14,0,0,1-3.4,1.83c-1.35,0-2.7,0-4,0-.47,0-.64.14-.64.63q0,3.9,0,7.8a4.27,4.27,0,0,1-3.1,4.2,5.33,5.33,0,0,1-1.38.18c-2.52,0-5,0-7.55,0a4.4,4.4,0,0,1-4.44-4.44c.06-1.23,0-2.47,0-3.7Zm4.29-2.6c0,1.94,0,3.88,0,5.82,0,.49.17.66.63.62s1.11-.07,1.66-.08c1.63,0,3.25.19,4.89,0,.7-.08.71,0,.71-.74V23.64c0-.82,0-.82.79-.82H32c.14,0,.34.08.42-.1s-.08-.18-.15-.25q-3.93-4-7.87-7.94c-1.36-1.37-2.75-2.69-4.09-4.07-.29-.28-.44-.3-.7,0-1.15,1.27-2.41,2.44-3.63,3.65-1.48,1.48-2.93,3-4.41,4.48L7.84,22.32c-.12.12-.35.22-.28.4s.31.1.47.1h7.29c.72,0,.73,0,.74.72Z"/>
    <path class="a" d="M20,4.4H4.55c-1.37,0-1.63-.27-1.63-1.65q0-.78,0-1.56A1,1,0,0,1,3.78.11,4.89,4.89,0,0,1,5.44,0,27.72,27.72,0,0,0,9,0a21.75,21.75,0,0,1,2.91,0,25.2,25.2,0,0,0,3-.06c1-.06,2,0,3,.06s2-.06,3-.06,1.94.06,2.91.06S25.68,0,26.63,0s1.94.07,2.91.06S31.66,0,32.71,0s2.18,0,3.27.08a1,1,0,0,1,1.1,1.11c0,.61,0,1.21,0,1.82,0,1-.4,1.35-1.37,1.35H20Z"/>
  </g>
</svg>
