<?xml version="1.0" encoding="UTF-8"?>
<svg id="Capa_2" data-name="Capa 2" xmlns="http://www.w3.org/2000/svg" viewBox="0 0 50 50">
  <defs>
    <style>
      .cls-1 {
        fill: #efeeee;
      }

      .cls-2 {
        fill: #fff;
      }
    </style>
  </defs>
  <path class="cls-2" d="M24.75,46.51c-11.75-.35-21.27-9.77-21.21-21.64.04-8.53,5.06-15.36,11.66-18.85l-1.65-3.19C5.57,6.96,0,15.28,0,25.05c0,13.86,11.3,24.98,25.17,24.95,4.09,0,7.92-1.01,11.31-2.75l-1.63-3.16c-3.05,1.61-6.5,2.53-10.11,2.42h.01Z"/>
  <path class="cls-1" d="M50,24.96c0-13.85-11.1-24.92-24.92-24.96-4.13,0-8.06,1.01-11.53,2.82l1.65,3.19c3.15-1.67,6.65-2.59,10.15-2.55,11.2.11,21.73,10.21,21.08,21.69.39,7.7-4.53,15.21-11.58,18.94l1.63,3.16c8.05-4.13,13.52-12.52,13.52-22.29Z"/>
  <g>
    <path class="cls-2" d="M30.69,35.33c.73.74,1.56,1.28,2.46,1.25,1.56,0,2.53-.6,3.17-1.8.68-1.28.37-2.45-.5-3.42-1.58-1.74-3.22-3.43-4.94-5.03-1.01-.95-1.06-1.6-.01-2.55,1.65-1.51,3.25-3.09,4.73-4.76,1.81-2.03,1.08-4.71-1.39-5.48-1.44-.45-2.52.27-3.47,1.17-1.59,1.5-3.14,3.04-4.63,4.63-.79.84-1.36.91-2.18.03-1.14-1.22-2.32-2.4-3.52-3.56l9.65,18.89c.21.21.42.42.63.63Z"/>
    <path class="cls-2" d="M20.4,15.81c-.41-.4-.81-.8-1.23-1.19-1.67-1.55-3.44-1.59-4.8-.26-1.48,1.44-1.42,3.13.25,4.88,1.43,1.5,2.85,3.02,4.41,4.38,1.28,1.11,1.12,1.88-.05,2.93-1.62,1.46-3.16,3.02-4.63,4.63-1.53,1.68-1.27,3.8.49,4.92,1.3.83,3,.63,4.3-.61,1.46-1.39,2.86-2.84,4.28-4.27,1.05-1.05,2.09-1.07,3.11-.05,1.18,1.17,2.35,2.35,3.52,3.53,0,0-9.65-18.89-9.65-18.89Z"/>
  </g>
</svg>