<?xml version="1.0" encoding="UTF-8"?>
<svg id="Capa_1" xmlns="http://www.w3.org/2000/svg" version="1.1" viewBox="0 0 640 640">
  <!-- Generator: Adobe Illustrator 30.0.0, SVG Export Plug-In . SVG Version: 2.1.1 Build 123)  -->
  <defs>
    <style>
      .st0 {
        fill: #52181e;
      }
    </style>
  </defs>
  <path class="st0" d="M256,144c0-26.5,21.5-48,48-48h32c26.5,0,48,21.5,48,48v352c0,26.5-21.5,48-48,48h-32c-26.5,0-48-21.5-48-48V144ZM64,336c0-26.5,21.5-48,48-48h32c26.5,0,48,21.5,48,48v160c0,26.5-21.5,48-48,48h-32c-26.5,0-48-21.5-48-48v-160ZM496,160h32c26.5,0,48,21.5,48,48v288c0,26.5-21.5,48-48,48h-32c-26.5,0-48-21.5-48-48V208c0-26.5,21.5-48,48-48Z"/>
</svg>