<?xml version="1.0" encoding="UTF-8"?>
<svg id="Capa_3" data-name="Capa 3" xmlns="http://www.w3.org/2000/svg" viewBox="0 0 50 50">
  <defs>
    <style>
      .cls-1 {
        fill: #fff;
        stroke-width: 0px;
      }
    </style>
  </defs>
  <path class="cls-1" d="m44.91,24.99c0-10.47-7.79-18.94-18.34-19.96-.67-.07-1.35-.12-2.02-.2-1.71-.2-2.63-1.11-2.56-2.52C22.05.9,23.08,0,24.76,0c2.13,0,4.23.29,6.28.82,11.04,2.87,18.96,12.99,18.96,24.2,0,12.25-9.38,22.92-21.73,24.72-1.14.17-2.27.27-3.42.25-1.76-.03-2.83-.89-2.87-2.33-.05-1.48,1.03-2.45,2.85-2.5,2.35-.07,4.63-.49,6.83-1.28,8-2.89,13.25-10.39,13.25-18.89"/>
  <path class="cls-1" d="m20.13,30.25v-1.2c0-4.64,0-9.29,0-13.93,0-.4-.01-.8.05-1.19.15-.91.88-1.52,1.83-1.56.93-.05,1.73.5,1.94,1.42.1.41.1.85.1,1.28,0,4.64,0,9.29.01,13.93,0,.39-.1.79.09,1.1,1.18-1.09,2.39-2.16,3.55-3.28,1.01-.98,1.94-2.03,2.94-3.02,1.08-1.07,2.02-1.16,2.93-.34.92.83.89,1.92-.12,2.98-2.66,2.78-5.34,5.54-8.01,8.32-.51.53-.99,1.09-1.51,1.61-1.28,1.29-2.24,1.33-3.56.07-1.09-1.04-2.09-2.16-3.14-3.25-2.13-2.22-4.27-4.43-6.4-6.66-.68-.72-1.13-1.53-.6-2.52.72-1.32,2.23-1.44,3.39-.25,1.82,1.87,3.61,3.77,5.42,5.65.27.28.49.64,1.08.84"/>
</svg>