<?xml version="1.0" encoding="UTF-8"?>
<svg id="Capa_1" xmlns="http://www.w3.org/2000/svg" version="1.1" viewBox="0 0 50 50">
  <!-- Generator: Adobe Illustrator 29.0.0, SVG Export Plug-In . SVG Version: 2.1.0 Build 186)  -->
  <defs>
    <style>
      .st0 {
        fill: #fff;
      }
    </style>
  </defs>
  <path class="st0" d="M39.15,25.22c0-10.1-7.43-18.27-17.49-19.26-.64-.06-1.29-.12-1.93-.19-1.63-.19-2.51-1.08-2.44-2.43.07-1.36,1.05-2.22,2.65-2.22,2.03,0,4.03.28,5.99.79,10.52,2.77,18.08,12.54,18.08,23.35,0,11.82-8.94,22.11-20.72,23.85-1.08.16-2.16.27-3.26.25-1.68-.03-2.69-.86-2.74-2.25-.05-1.42.98-2.37,2.72-2.42,2.24-.06,4.41-.47,6.51-1.24,7.63-2.79,12.63-10.02,12.63-18.23Z"/>
  <g id="tANQWd.tif">
    <path class="st0" d="M20.32,27.47c-1.05.03-2.01-.33-2.94-.79-.3-.15-.5-.13-.74.11-1.13,1.15-2.27,2.29-3.42,3.42-.26.26-.23.42.02.64.53.48,1.03.98,1.54,1.48.39.38.6.85.52,1.41-.09.61-.38,1.07-1.01,1.26-.7.21-1.31.03-1.81-.47-.51-.51-1.01-1.03-1.5-1.57-.21-.23-.37-.21-.56,0-.64.73-.59.55,0,1.13.43.42.86.82,1.28,1.25.85.87.7,2.14-.34,2.66-.44.22-.91.21-1.35-.01-.26-.13-.49-.31-.7-.52-.85-.85-1.71-1.7-2.56-2.56-.49-.49-.79-1.06-.59-1.79.09-.34.28-.63.53-.87,2.57-2.55,5.13-5.1,7.72-7.63.26-.26.3-.45.13-.79-1.08-2.16-1.09-4.33.03-6.49,1-1.92,2.62-3.06,4.69-3.49,2.01-.41,3.88.04,5.53,1.28,1.5,1.14,2.34,2.67,2.61,4.52.3,2.04-.29,3.84-1.59,5.41-1.13,1.36-2.61,2.1-4.36,2.32-.38.05-.75.14-1.15.08ZM16.88,20.56c.06,2.07,1.5,3.78,3.76,3.78,2.22,0,3.7-1.71,3.72-3.73.03-2.11-1.63-3.75-3.72-3.75-2.3,0-3.7,1.82-3.76,3.69Z"/>
  </g>
</svg>