<?xml version="1.0" encoding="utf-8"?>
<!-- Generator: Adobe Illustrator 28.0.0, SVG Export Plug-In . SVG Version: 6.00 Build 0)  -->
<svg version="1.1" id="Capa_3" xmlns="http://www.w3.org/2000/svg" xmlns:xlink="http://www.w3.org/1999/xlink" x="0px" y="0px"
	 viewBox="0 0 50 50" style="enable-background:new 0 0 50 50;" xml:space="preserve">
<style type="text/css">
	.st0{fill: currentColor;}
</style>
<g>
	<path class="st0" d="M10.3,31c1.1-1.8,2.2-3.5,3-5.2c1.1-2.3,2.6-3.1,5.2-3.1c7.8,0.2,15.6,0.1,23.4,0.1c0.3,0,0.6,0,1,0
		c2.1,0.1,3.1,1.7,2.1,3.5c-2.4,4.2-4.8,8.3-7.2,12.4c-0.5,0.9-1.3,1.2-2.2,1.2c-8.1,0-16.3,0-24.4,0c-2.2,0-3.8-1.5-4.2-3.7
		c-0.1-0.6-0.1-1.1-0.1-1.7c0-6.4,0-12.8,0-19.2c0-0.6,0.1-1.1,0.1-1.7c0.4-2.1,2-3.6,4.2-3.7c2.7,0,5.4,0,8.1,0
		c1.2,0,2.1,0.5,3,1.3c0.5,0.5,1.1,1,1.6,1.6c0.9,1,2,1.4,3.3,1.4c2.4,0,4.8,0,7.1,0c3.3,0,5.4,2.6,4.7,5.9
		c-0.1,0.4-0.3,0.6-0.7,0.6c-0.6,0-1.2,0-1.8,0c-0.6,0-0.9-0.3-0.9-0.9c0-0.3,0-0.6,0-1c0-1-0.4-1.3-1.4-1.3c-2.3,0-4.6,0-6.9,0
		c-2.4,0-4.5-0.7-6.1-2.6c-1.1-1.3-2.4-1.9-4.2-1.7c-1.8,0.1-3.6,0-5.4,0c-0.9,0-1.4,0.4-1.4,1.3c0,5.3,0,10.7,0,16
		C10.1,30.7,10.2,30.8,10.3,31z"/>
</g>
</svg>
