<?xml version="1.0" encoding="UTF-8"?>
<svg id="Capa_1" xmlns="http://www.w3.org/2000/svg" version="1.1" viewBox="0 0 640 640">
  <!-- Generator: Adobe Illustrator 30.0.0, SVG Export Plug-In . SVG Version: 2.1.1 Build 123)  -->
  <defs>
    <style>
      .st0 {
        fill: #52181e;
      }
    </style>
  </defs>
  <path class="st0" d="M80,88c0-13.3-10.7-24-24-24s-24,10.7-24,24v368c0,30.9,25.1,56,56,56h184v-48H88c-4.4,0-8-3.6-8-8v-232h192v-48H80v-88ZM368,288h192c26.5,0,48-21.5,48-48v-96c0-26.5-21.5-48-48-48h-82.7c-8.5,0-16.6-3.4-22.6-9.4l-8.6-8.6c-9-9-21.2-14.1-33.9-14.1l-44.2.1c-26.5,0-48,21.5-48,48v128c0,26.5,21.5,48,48,48ZM368,576h192c26.5,0,48-21.5,48-48v-96c0-26.5-21.5-48-48-48h-82.7c-8.5,0-16.6-3.4-22.6-9.4l-8.6-8.6c-9-9-21.2-14.1-33.9-14.1l-44.2.1c-26.5,0-48,21.5-48,48v128c0,26.5,21.5,48,48,48Z"/>
</svg>