<?xml version="1.0" encoding="UTF-8"?>
<svg id="general" xmlns="http://www.w3.org/2000/svg" viewBox="0 0 50 50">
  <defs>
    <style>
      .cls-1 {
        fill: #fff;
        stroke-width: 0px;
      }
    </style>
  </defs>
  <g id="OFeZgU.tif">
    <g>
      <path class="cls-1" d="M6.25,25.05c0-6.01.08-12.03-.03-18.04C6.14,3.17,8.75.09,13.04.05c7.96-.07,15.92-.06,23.88,0,2.68.02,4.86,1.14,6.14,3.66.56,1.1.7,2.29.71,3.47.03,11.95.03,23.9.01,35.85,0,3.46-1.76,5.82-4.88,6.77-.45.14-.91.18-1.38.18-8.32,0-16.64.02-24.96,0-3.55-.01-6.28-2.78-6.29-6.35-.02-6.2,0-12.39,0-18.59ZM38.81,25.15c0-6.12,0-12.23,0-18.35,0-1.36-.4-1.77-1.75-1.79-1.61-.01-3.22.03-4.82-.02-.79-.03-1.02.23-1.02,1.02.02,2.38-1.25,3.64-3.63,3.67-1.76.02-3.52.01-5.29,0-.71,0-1.38-.18-2.01-.52-1.37-.72-1.61-2.01-1.68-3.36-.03-.61-.26-.81-.85-.8-1.53.02-3.06,0-4.59,0-1.7,0-2.16.46-2.16,2.16,0,11.92,0,23.84,0,35.77,0,1.82.48,2.29,2.32,2.29,7.8,0,15.6,0,23.4,0,1.68,0,2.07-.39,2.07-2.05,0-6.01,0-12.03,0-18.04Z"/>
      <path class="cls-1" d="M24.96,40.78c-2.85,0-5.7,0-8.55,0-1.96,0-2.61-.77-2.34-2.71.5-3.64,2.98-6.22,6.62-6.71,2.96-.39,5.95-.41,8.9.04,3.6.56,6.31,3.82,6.3,7.41,0,1.2-.47,1.74-1.68,1.91-.33.05-.67.05-1.01.05-2.75,0-5.49,0-8.24,0Z"/>
      <path class="cls-1" d="M24.93,28.24c-2.79-.04-6.27-2.39-6.23-6.28.04-3.39,2.85-6.25,6.26-6.26,3.38,0,6.23,2.87,6.28,6.24.06,3.67-3.28,6.29-6.31,6.29Z"/>
    </g>
  </g>
</svg>