<?xml version="1.0" encoding="UTF-8"?>
<svg id="Capa_3" data-name="Capa 3" xmlns="http://www.w3.org/2000/svg" viewBox="0 0 50 50">
  <defs>
    <style>
      .cls-1 {
        fill: #fff;
        stroke-width: 0px;
      }
    </style>
  </defs>
  <path class="cls-1" d="m45.01,24.99c0-10.47-7.64-18.94-17.98-19.96-.66-.07-1.32-.12-1.98-.2-1.67-.2-2.58-1.11-2.51-2.52C22.6.9,23.61,0,25.25,0c2.08,0,4.14.29,6.16.82,10.82,2.87,18.59,12.99,18.59,24.2,0,12.25-9.19,22.92-21.3,24.72-1.11.17-2.22.28-3.35.25-1.72-.03-2.77-.89-2.82-2.33-.05-1.48,1.01-2.45,2.8-2.5,2.3-.07,4.54-.49,6.7-1.28,7.84-2.89,12.99-10.39,12.99-18.89Z"/>
  <g>
    <path class="cls-1" d="m22.62,37.02c-3.17,0-6.34,0-9.51,0-1.93,0-3.08-1.06-3.09-3.01-.03-6.34-.03-12.67,0-19.01.01-1.93,1.17-2.97,3.12-2.97,4.74,0,9.48.01,14.21-.01,1.02,0,1.84.32,2.54,1.04,1.39,1.41,2.8,2.81,4.21,4.21.66.66.99,1.42.99,2.38-.02,4.8,0,9.59-.01,14.39,0,1.91-1.06,2.97-2.97,2.98-3.17,0-6.34,0-9.51,0Zm5.37-21.87c0,1.84,0,3.44,0,5.03,0,1.24-.49,1.73-1.72,1.73-3.02,0-6.04,0-9.06,0-1.31,0-1.82-.51-1.85-1.83-.03-1.27,0-2.55,0-3.82,0-1.5,0-1.47-1.54-1.47-.7,0-.93.26-.93.94.02,5.86.02,11.72,0,17.58,0,.68.23.94.93.94,5.83-.02,11.66-.02,17.5,0,.69,0,.94-.24.94-.93-.02-4.41,0-8.82,0-13.23,0-.39-.03-.77-.33-1.07-1.24-1.22-2.48-2.45-3.91-3.88Zm-6.26-.35c-.92,0-1.83.01-2.75,0-.51-.01-.77.16-.76.71.02.98.02,1.95,0,2.93-.01.55.26.71.76.71,1.77-.01,3.55-.02,5.32,0,.54,0,.84-.17.82-.76-.02-.95-.02-1.89,0-2.84.01-.59-.28-.77-.83-.75-.86.02-1.71,0-2.57,0Z"/>
    <path class="cls-1" d="m17.62,28.07c0-2.7,2.28-4.97,5-4.96,2.62,0,4.94,2.31,4.97,4.93.03,2.64-2.34,5.01-4.99,5.01-2.72,0-4.98-2.27-4.98-4.98Zm4.93,2.11c1.28,0,2.14-.82,2.16-2.07.02-1.25-.83-2.12-2.09-2.14-1.28-.02-2.12.79-2.13,2.07-.02,1.29.8,2.14,2.06,2.14Z"/>
  </g>
</svg>