<?xml version="1.0" encoding="UTF-8"?>
<svg id="Capa_3" xmlns="http://www.w3.org/2000/svg" version="1.1" viewBox="0 0 50 50">
  <!-- Generator: Adobe Illustrator 29.0.0, SVG Export Plug-In . SVG Version: 2.1.0 Build 186)  -->
  <defs>
    <style>
      .st0 {
        fill: #fff;
      }
    </style>
  </defs>
  <path class="st0" d="M15.29,15.3c0-1.34,1.08-2.43,2.43-2.43s2.43,1.08,2.43,2.43v.59c0,2.1-.18,4.19-.54,6.26l-6.4,1.92c-3.08.93-5.19,3.76-5.19,6.98v5.45c0,3.03,2.46,5.5,5.5,5.5,1.97,0,3.79-1.05,4.77-2.77l1.05-1.84c2.03-3.56,3.53-7.41,4.43-11.41l7.16-2.15-.95,2.84c-.25.74-.12,1.55.33,2.18s1.19,1.01,1.97,1.01h9.71c1.34,0,2.43-1.08,2.43-2.43s-1.08-2.43-2.43-2.43h-6.34l1.37-4.09c.29-.86.07-1.8-.56-2.46s-1.57-.89-2.44-.64l-9.29,2.79c.18-1.57.27-3.14.27-4.72v-.59c0-4.02-3.26-7.28-7.28-7.28s-7.28,3.26-7.28,7.28v2.43c0,1.34,1.08,2.43,2.43,2.43s2.43-1.08,2.43-2.43v-2.43h0ZM14.59,28.73l3.72-1.11c-.79,2.56-1.86,5.04-3.19,7.37l-1.05,1.84c-.11.2-.33.33-.56.33-.36,0-.64-.29-.64-.64v-5.45c0-1.07.71-2.02,1.73-2.33h0ZM2.55,33.5c-1.01,0-1.82.81-1.82,1.82s.81,1.82,1.82,1.82h3.06c-.02-.21-.02-.42-.02-.64v-3h-3.04ZM47.45,37.14c1.01,0,1.82-.81,1.82-1.82s-.81-1.82-1.82-1.82h-23.52c-.51,1.24-1.08,2.45-1.69,3.64h25.21Z"/>
</svg>