<?xml version="1.0" encoding="UTF-8"?>
<svg id="Capa_3" data-name="Capa 3" xmlns="http://www.w3.org/2000/svg" viewBox="0 0 50 50">
  <defs>
    <style>
      .cls-1 {
        fill: #c39852;
        stroke-width: 0px;
      }
    </style>
  </defs>
  <path class="cls-1" d="m25.02,40.6c-4.93,0-9.86,0-14.79,0-3.45,0-5.23-1.79-5.23-5.24,0-6.97,0-13.93,0-20.9,0-3.2,1.84-5.04,5.07-5.04,9.95,0,19.9.03,29.85-.02,3.16-.02,5.13,2.28,5.08,5.08-.11,7.05-.04,14.11-.04,21.17,0,3.09-1.85,4.94-4.97,4.95-4.99.01-9.98,0-14.97,0m-.02-2.34c4.99,0,9.98,0,14.97,0,1.92,0,2.63-.7,2.63-2.61,0-7.09,0-14.18,0-21.26,0-1.93-.68-2.6-2.63-2.6-9.98,0-19.96,0-29.95,0-2,0-2.68.67-2.68,2.65,0,7.06,0,14.12,0,21.17,0,1.97.7,2.65,2.68,2.65,4.99,0,9.98,0,14.97,0"/>
  <path class="cls-1" d="m22.82,20.59c0,2.47-2.04,4.47-4.53,4.46-2.43-.01-4.43-2.03-4.43-4.47,0-2.48,2.03-4.47,4.53-4.46,2.42.01,4.43,2.04,4.43,4.47m-6.57-.05c-.01,1.35.72,2.12,2.02,2.14,1.35.02,2.18-.78,2.18-2.1,0-1.29-.81-2.1-2.09-2.1-1.34,0-2.1.74-2.11,2.05"/>
  <path class="cls-1" d="m18.39,27.14c1.65-.01,3.31-.11,4.85.71,1.8.96,2.69,2.51,2.91,4.47.1.92-.32,1.49-1.05,1.57-.73.08-1.17-.37-1.3-1.33-.25-1.85-1.41-2.95-3.32-3.04-1.41-.06-2.83-.06-4.25,0-1.93.08-3,1.1-3.33,3.03-.17,1-.66,1.46-1.41,1.33-.71-.12-1.06-.78-.92-1.74.45-3.03,2.58-4.91,5.7-5,.71-.02,1.42,0,2.12,0"/>
  <path class="cls-1" d="m33.9,25.05c-1.42,0-2.83.01-4.25,0-.89,0-1.38-.43-1.39-1.14,0-.7.49-1.18,1.36-1.18,2.8-.02,5.6-.02,8.41,0,.84,0,1.39.52,1.4,1.17,0,.72-.53,1.15-1.47,1.16-1.36.01-2.71,0-4.07,0"/>
  <path class="cls-1" d="m33.84,20.63c-1.39,0-2.77.01-4.16,0-.9,0-1.38-.4-1.41-1.12-.03-.71.42-1.18,1.34-1.19,2.83-.03,5.66-.03,8.49,0,.85,0,1.38.55,1.34,1.22-.04.69-.54,1.09-1.44,1.1-1.39.01-2.77,0-4.16,0"/>
  <path class="cls-1" d="m33.85,29.49c-1.38,0-2.77.02-4.15,0-.94-.02-1.48-.47-1.43-1.2.06-.86.66-1.13,1.41-1.14,2.77-.01,5.54-.02,8.31,0,.91,0,1.47.53,1.45,1.21-.03.71-.54,1.11-1.52,1.13-1.35.02-2.71,0-4.06,0h0Z"/>
</svg>