<?xml version="1.0" encoding="UTF-8"?>
<svg id="Capa_1" xmlns="http://www.w3.org/2000/svg" version="1.1" viewBox="0 0 640 640">
  <!-- Generator: Adobe Illustrator 30.0.0, SVG Export Plug-In . SVG Version: 2.1.1 Build 123)  -->
  <defs>
    <style>
      .st0 {
        fill: #52181e;
      }
    </style>
  </defs>
  <path class="st0" d="M160,96c-35.3,0-64,28.7-64,64v320c0,35.3,28.7,64,64,64h320c35.3,0,64-28.7,64-64V160c0-35.3-28.7-64-64-64H160ZM224,176c26.5,0,48,21.5,48,48s-21.5,48-48,48-48-21.5-48-48,21.5-48,48-48ZM368,288c8.4,0,16.1,4.4,20.5,11.5l88,144c4.5,7.4,4.7,16.7.5,24.3-4.2,7.6-12.3,12.2-21,12.2H184c-8.9,0-17.2-5-21.3-12.9-4.1-7.9-3.5-17.5,1.6-24.8l56-80c4.5-6.4,11.8-10.2,19.7-10.2s15.2,3.8,19.7,10.2l26.4,37.8,61.4-100.5c4.4-7.1,12.1-11.5,20.5-11.5v-.1Z"/>
</svg>