<?xml version="1.0" encoding="UTF-8"?>
<svg id="Capa_1" xmlns="http://www.w3.org/2000/svg" version="1.1" viewBox="0 0 280 100">
  <!-- Generator: Adobe Illustrator 29.0.0, SVG Export Plug-In . SVG Version: 2.1.0 Build 186)  -->
  <defs>
    <style>
      .st0 {
        fill: #fff;
      }
    </style>
  </defs>
  <path class="st0" d="M0,13.05l9.4-1,2.39,2.91c6.6-3.75,15.62-4.38,21.93.3,7.5-4,22.39-5.93,26.8,3.21,1.31,2.71,1.79,6.68,1.95,9.67.53,9.96-.42,20.38-.01,30.39h-13.62V25.5c0-.21-.76-1.72-.99-2-1.68-2.12-7.8-1.16-9.97,0v35.02h-13.29V25.83c0-.23-.76-1.69-.99-1.99-2.08-2.73-7.05-1.15-9.97-.83v35.52H0V13.05Z"/>
  <path class="st0" d="M231.21,58.53h-13.62V26.16c0-.34-.84-1.8-1.15-2.17-2.53-3.04-8.73-1.59-12.14-.98v35.52h-13.62V13.05l9.13-.99,2.93,2.6c8.2-4.42,20.09-3.85,25.62,4.39,1.03,1.53,2.84,5.68,2.84,7.45v32.03Z"/>
  <path class="st0" d="M261.44,26.49c-.26-1.59-2.15-3.45-3.66-3.98-3.57-1.25-10.24,1.36-13.94,2.16l-2.97-8.27c9.42-3.45,19.35-7.55,28.37-.69,2.98,2.26,5.49,6.63,5.49,10.45v22.74l3.83.32,1.44,7.28c-6.03,2.07-12.55,5.82-17.4-.53-6.28,3.43-13.21,5.39-19.74,1.38-8.98-5.52-9.01-18.66.34-23.84,5.88-3.26,11.88-1.69,18.23-1.53-.19-1.68.27-3.87,0-5.48ZM261.44,40.27h-8.47c-.75,0-2.88,1.98-3.09,2.89-1.67,7.29,6.96,6.9,11.56,5.41v-8.3Z"/>
  <path class="st0" d="M87.96,12.15c18.7-1.91,28.24,12.86,24.82,30.11-2.59,13.08-14.56,19.52-27.29,16.64-23-5.21-21.4-44.32,2.47-46.75ZM96.89,24.12c-4.46-4.88-11.35-2-13.27,3.94-2.27,7.06-1.65,23.31,9.2,21.81,8.73-1.21,8.78-20.59,4.07-25.75Z"/>
  <path class="st0" d="M184.32,39.23l-25.54-.62c.03,2.89,1.08,6.34,3.25,8.3,5.35,4.85,14.4,1.5,20.67.33l.92,7.76c-.18.98-5.5,2.62-6.65,2.94-20.58,5.82-32.96-4.12-31.49-25.5,1.02-14.81,12.73-23.61,27.33-19.64,11.2,3.05,15.15,16.36,11.51,26.42ZM172.41,30.31c-.07-11.54-13.88-11.7-13.29,0h13.29Z"/>
  <path class="st0" d="M118.93,13.05c1.91.1,8.24-1.58,9.49-.69.82.59,1.54,3.38,2.57,3.29.57-.05,3.34-1.91,4.32-2.33,3.05-1.31,6.26-2.03,9.52-2.6l-1.32,12.62c-3.7.45-7.9.33-11.3,1.82v33.69h-13.29V13.05Z"/>
  <path class="st0" d="M203.3,67.82l3.16,12.95,3.65-12.95h5.81l.67,17.93h-3.8s-.53-12.28-.53-12.28c-.61.1-.56.68-.71,1.12-.61,1.78-2.12,9.73-2.77,10.51-.52.63-3.57.34-4.5.17l-3.47-12.13-.5,12.62h-3.99s.67-17.93.67-17.93h6.31Z"/>
  <path class="st0" d="M62.78,85.75v5.64h-3.99v-18.59c.73.03,1.43-.42,2.16-.37.74.05,1.15.65,1.65.68.54.03,1.34-.53,2.03-.62,7.37-.95,8.52,10.63,2.46,12.75-1.31.46-2.94.54-4.32.5ZM62.45,82.76c6.33,1.7,6.1-9.92,0-6.81v6.81Z"/>
  <path class="st0" d="M171.41,66.49v18.92c-.82-.12-1.68.45-2.47.34-.49-.07-.87-.65-1.3-.61-.33.03-.73.47-1.13.53-3.14.43-5.51.34-6.64-3.17-1.83-5.67,1.36-11.67,7.88-9.7v-6.31h3.65ZM167.76,82.76v-6.81c-4.22-2.37-5.45,2.6-4.16,5.82.75,1.87,2.59,1.28,4.16.99Z"/>
  <path class="st0" d="M122.58,85.75h-3.65v-9.13c0-1.55-2.93-1.17-3.99-1.16v10.29h-3.65v-12.95c1.44-.84,2.7.24,3.42.25,1.27.02,2.34-.91,4.31-.51,1.14.23,3.56,2.27,3.56,3.41v9.79Z"/>
  <path class="st0" d="M107.01,83.05c.31.32,1.6.09,1.62,2.03-1.29.33-2.41.91-3.81.66-.51-.09-.88-.6-1.34-.63-.77-.04-2.24.89-3.55.79-3.31-.25-5.15-3.93-2.95-6.53,1.52-1.8,4.23-1.15,6.32-1.25l-.17-2c-.76-1.59-4.65.05-5.12-.36l-.54-1.97c2.55-1.27,6.28-2.28,8.49.17,1.98,2.2.44,8.47,1.04,9.09ZM103.31,80.43l-3.28.37c-1.41,2.27,4.42,4.1,3.28-.37Z"/>
  <path class="st0" d="M23.83,83.17c.17.16.52,1.73.41,1.89-.93.16-2.03.81-2.94.85-.86.04-1.4-.79-2.19-.8-.6,0-1.32.52-2.02.6-3.32.41-5.67-1.25-5.1-4.77.53-3.27,4.46-2.98,6.96-2.84l-.17-2c-.96-1.63-3.86.17-4.83-.48l-.65-2.17c2.82-.59,5.4-1.99,7.98.15,2.73,2.26.46,6.46,1.36,8.94.22.6.96.39,1.2.62ZM18.94,80.43c-1.02.02-2.93-.35-3.28.9-.66,2.39,4.49,2.84,3.28-.9Z"/>
  <path class="st0" d="M150.06,83.17c.17.16.52,1.73.41,1.89-.93.16-2.03.81-2.94.85-.86.04-1.4-.79-2.19-.8-.6,0-1.32.52-2.02.6-3.28.4-5.64-1.22-5.05-4.7.55-3.24,4.36-3.03,6.9-2.9l-.17-2c-1.84-2.06-5.34,1.67-5.34-2.33,2.4-1.61,7.27-2.1,8.79.88,1.07,2.09-.24,6.08.41,7.89.22.6.96.39,1.2.62ZM145.17,80.43c-.9.07-2.11-.25-2.85.3-2.27,1.71,3.84,4.71,2.85-.3Z"/>
  <path class="st0" d="M271.65,72.55c5.39-.92,7.94,3.1,7.4,8.05-.86,7.77-13.66,7.11-12.26-2.96.35-2.52,2.34-4.66,4.87-5.09ZM272.31,75.18c-2.58.75-2.97,8.7,1.24,7.9,2.9-.55,2.54-9-1.24-7.9Z"/>
  <path class="st0" d="M36.87,80.1c.58,4,4.05,3.02,6.97,2.32l-.04,2.11c-.3.89-4.3,1.45-5.28,1.39-8.35-.59-6.7-16.36,2.85-13.14,2.69.91,4.04,5.01,2.64,7.32h-7.14ZM37.61,75.53c-.17.18-.89,1.82-.42,2.09,6.52,1.53,2.57-4.28.42-2.09Z"/>
  <path class="st0" d="M222.9,80.1c.86,3.98,3.88,3.13,6.97,2.32l.33,2.31c-5.7,2.6-11.31.99-10.98-6.14.37-7.77,10.62-8.21,11.31-1.65.1.94.24,2.51-.5,3.16h-7.14ZM226.89,77.78c.23-3.53-4.16-3.7-3.66,0h3.66Z"/>
  <path class="st0" d="M185.36,80.1h-7.31c.19,3.86,3.95,3.11,6.64,2.32l.31,2.11c-6.55,3.41-11.55.42-10.61-7.26s13.63-5.5,10.97,2.83ZM181.71,77.78c.31-3.57-3.85-3.6-3.66,0h3.66Z"/>
  <path class="st0" d="M77.4,80.1c-.01,4.04,3.95,3.05,6.64,2.32l.33,2.3c-5.54,2.68-11.35.82-10.96-6.11.26-4.63,4.45-7.83,8.88-5.56,2.33,1.2,3.2,4.9,1.93,7.04h-6.81ZM81.06,77.78c.18-3.62-3.97-3.55-3.66,0h3.66Z"/>
  <path class="st0" d="M236.46,72.87l2.23,3.59c.46.11.55-.29.77-.55,2.18-2.59,1.36-3.72,6.03-3.1l-3.93,6.08,4.93,6.86c-1.12-.16-3.02.32-3.99-.16-.52-.26-3.23-4.77-3.65-4.48l-2.99,4.48-3.99.16,4.61-6.52-4.28-6.42,4.25.07Z"/>
  <polygon class="st0" points="3.99 67.82 3.99 82.43 9.97 82.43 9.97 85.75 .5 85.75 0 85.25 0 67.82 3.99 67.82"/>
  <path class="st0" d="M135.87,72.8c.35,4.12-4.21,6.41-5.65,9.96h5.65v2.99h-10.3c-.6-4.32,4.42-6.85,5.65-10.62h-4.98v-2.32h9.63Z"/>
  <path class="st0" d="M55.11,73.17l-.3,2.62-4.32-.17-.33,1c2.25,1.32,5.83,1.34,6.01,4.64.27,5.04-5.83,5.21-9.33,3.82l.34-2.65c.35-.36,5.3,1.8,5.63-.2.26-1.58-5.58-1.68-5.98-4.93-.58-4.75,4.84-5.66,8.28-4.13Z"/>
  <path class="st0" d="M264.75,72.81l-.37,2.27c-3.49-.26-5.61.25-5.6,4.2.02,3.94,2.73,4.27,5.96,3.5l.32,1.95c-13.15,6.07-13.43-15.64-.32-11.91Z"/>
  <path class="st0" d="M88.03,72.8c.75-.13,1.67-.54,2.43-.34.39.1.37.9.75,1,.46.12,3.12-1.79,4.13-1.32l-.71,3.6c-.57.35-2.37-.45-2.94.54v9.46h-3.65v-12.95Z"/>
  <polygon class="st0" points="252.47 73.13 252.47 85.75 248.81 85.75 248.81 75.79 247.15 75.79 247.2 73.68 247.65 73.13 252.47 73.13"/>
  <polygon class="st0" points="228.88 67.82 226.84 72.08 223.9 72.13 225.55 67.97 228.88 67.82"/>
  <path class="st0" d="M248.89,71.06c-2.16-2.16,2.04-5.21,3.41-2.24.93,2.03-2.06,3.59-3.41,2.24Z"/>
</svg>