<?xml version="1.0" encoding="UTF-8"?>
<svg id="Capa_5" data-name="Capa 5" xmlns="http://www.w3.org/2000/svg" viewBox="0 0 50 50">
  <defs>
    <style>
      .cls-1 {
        opacity: .5;
      }

      .cls-2 {
        fill: #ddc9a5;
      }

      .cls-2, .cls-3 {
        stroke-width: 0px;
      }

      .cls-3 {
        fill: #bb965c;
      }
    </style>
  </defs>
  <g class="cls-1">
    <path class="cls-2" d="m29.8,31.45c2.9-.88,6.07,1.56,6.32,4.72.03.34-.01.68.02,1.02.08.81-.27,1.06-1.06,1.05-.75,0-1.51,0-2.26,0l1.65,3.18c.53,0,1.07,0,1.6,0,1.97,0,3.26-1.26,3.35-3.23.03-.58.02-1.16,0-1.74-.18-5.68-5.89-9.84-10.98-8-.21.08-.42.13-.63.19l1.52,2.93c.15-.04.3-.07.45-.12Z"/>
    <path class="cls-3" d="m32.82,38.23c-2.62-.01-5.23,0-7.85,0-3.23,0-6.47,0-9.7,0-1.39,0-1.4,0-1.39-1.44.01-2.81,1.7-4.91,4.38-5.5.62-.14,1.22-.08,1.81.11,3.09,1.01,6.17,1.03,9.29.16l-1.52-2.93c-2.12.61-4.27.49-6.39-.22-2.16-.72-4.25-.52-6.22.58-3.46,1.94-4.84,4.97-4.66,8.87.11,2.33,1.23,3.54,3.53,3.55,3.61,0,7.22,0,10.83,0,3.18,0,6.36,0,9.54,0l-1.65-3.18Z"/>
    <path class="cls-2" d="m34.33,17.82c-.01-5.13-4.16-9.25-9.32-9.25-2.47,0-4.68.92-6.33,2.44l1.59,3.06c1.1-1.42,2.82-2.31,4.78-2.31,3.33.01,6,2.73,5.99,6.09,0,3.24-2.5,5.85-5.66,6.03l1.56,3c4.25-.89,7.41-4.59,7.4-9.07Z"/>
    <path class="cls-3" d="m25,23.91c-3.4,0-6.03-2.69-6.01-6.14,0-1.41.48-2.68,1.27-3.69l-1.59-3.06c-1.83,1.68-2.97,4.08-2.97,6.79,0,5.19,4.05,9.28,9.24,9.3.69,0,1.35-.07,1.99-.21l-1.56-3c-.12,0-.24.02-.36.02Z"/>
  </g>
</svg>