<?xml version="1.0" encoding="UTF-8"?>
<svg id="Capa_1" xmlns="http://www.w3.org/2000/svg" version="1.1" viewBox="0 0 640 640">
  <!-- Generator: Adobe Illustrator 30.2.1, SVG Export Plug-In . SVG Version: 2.1.1 Build 1)  -->
  <defs>
    <style>
      .st0 {
        fill: #52181e;
      }
    </style>
  </defs>
  <path class="st0" d="M160,96c-35.3,0-64,28.7-64,64v64c0,35.3,28.7,64,64,64h320c35.3,0,64-28.7,64-64v-64c0-35.3-28.7-64-64-64H160ZM376,168c13.3,0,24,10.7,24,24s-10.7,24-24,24-24-10.7-24-24,10.7-24,24-24ZM432,192c0-13.3,10.7-24,24-24s24,10.7,24,24-10.7,24-24,24-24-10.7-24-24ZM160,352c-35.3,0-64,28.7-64,64v64c0,35.3,28.7,64,64,64h320c35.3,0,64-28.7,64-64v-64c0-35.3-28.7-64-64-64H160ZM376,424c13.3,0,24,10.7,24,24s-10.7,24-24,24-24-10.7-24-24,10.7-24,24-24ZM432,448c0-13.3,10.7-24,24-24s24,10.7,24,24-10.7,24-24,24-24-10.7-24-24Z"/>
</svg>