<?xml version="1.0" encoding="UTF-8"?>
<svg id="Capa_1" xmlns="http://www.w3.org/2000/svg" version="1.1" viewBox="0 0 640 640">
  <!-- Generator: Adobe Illustrator 30.0.0, SVG Export Plug-In . SVG Version: 2.1.1 Build 123)  -->
  <defs>
    <style>
      .st0 {
        fill: #52181e;
      }
    </style>
  </defs>
  <path class="st0" d="M96,160c0-35.3,28.7-64,64-64h320c35.3,0,64,28.7,64,64v320c0,35.3-28.7,64-64,64H160c-35.3,0-64-28.7-64-64V160ZM160,160v64h64v-64h-64ZM480,160h-192v64h192v-64ZM160,288v64h64v-64h-64ZM480,288h-192v64h192v-64ZM160,416v64h64v-64h-64ZM480,416h-192v64h192v-64Z"/>
</svg>