<?xml version="1.0" encoding="UTF-8"?>
<svg id="Capa_1" xmlns="http://www.w3.org/2000/svg" version="1.1" viewBox="0 0 640 640">
  <!-- Generator: Adobe Illustrator 30.0.0, SVG Export Plug-In . SVG Version: 2.1.1 Build 123)  -->
  <defs>
    <style>
      .st0 {
        fill: #52181e;
      }
    </style>
  </defs>
  <path class="st0" d="M433.2,103.1l148.2,150.3c27.7,28.1,27.7,73.1,0,101.2l-156.4,158.3c-9.3,9.4-24.5,9.5-33.9.2-9.4-9.3-9.5-24.5-.2-33.9l156.4-158.4c9.2-9.3,9.2-24.4,0-33.7l-148.3-150.2c-9.3-9.4-9.2-24.6.2-33.9,9.4-9.3,24.6-9.2,33.9.2l.1-.1ZM64.1,293.5v-133.5c0-35.3,28.7-64,64-64h133.5c17,0,33.3,6.7,45.3,18.7l144,144c25,25,25,65.5,0,90.5l-133.5,133.5c-25,25-65.5,25-90.5,0l-144-144c-12-12-18.7-28.3-18.7-45.3l-.1.1ZM208.1,208c0-17.7-14.3-32-32-32s-32,14.3-32,32,14.3,32,32,32,32-14.3,32-32Z"/>
</svg>