<?xml version="1.0" encoding="utf-8"?>
<!-- Generator: Adobe Illustrator 28.0.0, SVG Export Plug-In . SVG Version: 6.00 Build 0)  -->
<svg version="1.1" id="Capa_3" xmlns="http://www.w3.org/2000/svg" xmlns:xlink="http://www.w3.org/1999/xlink" x="0px" y="0px"
	 viewBox="0 0 50 50" style="enable-background:new 0 0 50 50;" xml:space="preserve">
<style type="text/css">
	.st0{fill:#FFFFFF;}
</style>
<g>
	<path class="st0" d="M41.9,25c0-10.5-7.6-18.9-18-20c-0.7-0.1-1.3-0.1-2-0.2c-1.7-0.2-2.6-1.1-2.5-2.5C19.5,0.9,20.5,0,22.2,0
		c2.1,0,4.1,0.3,6.2,0.8c10.8,2.9,18.6,13,18.6,24.2c0,12.2-9.2,22.9-21.3,24.7c-1.1,0.2-2.2,0.3-3.3,0.3c-1.7,0-2.8-0.9-2.8-2.3
		c-0.1-1.5,1-2.5,2.8-2.5c2.3-0.1,4.5-0.5,6.7-1.3C36.8,41,41.9,33.5,41.9,25"/>
	<g>
		<path class="st0" d="M29.5,18.1L11.6,35.9c-1.1,1.1-2.9,1.1-4,0s-1.1-2.9,0-4l17.9-17.9c1.1-1.1,2.9-1.1,4,0S30.6,17,29.5,18.1z"
			/>
	</g>
	<g>
		<path class="st0" d="M29.5,35.9c-1.1,1.1-2.9,1.1-4,0L7.6,18.1c-1.1-1.1-1.1-2.9,0-4s2.9-1.1,4,0l17.9,17.9
			C30.6,33,30.6,34.8,29.5,35.9z"/>
	</g>
</g>
</svg>
