<?xml version="1.0" encoding="UTF-8"?>
<svg id="Capa_1" xmlns="http://www.w3.org/2000/svg" version="1.1" viewBox="0 0 640 640">
  <!-- Generator: Adobe Illustrator 29.8.2, SVG Export Plug-In . SVG Version: 2.1.1 Build 3)  -->
  <defs>
    <style>
      .st0 {
        fill: #fff;
      }
    </style>
  </defs>
  <path class="st0" d="M450.71,336.01h-210.7c-17.7,0-32-14.3-32-32s14.3-32,32-32h210.7l-41.4-41.4c-12.5-12.5-12.5-32.8,0-45.3s32.8-12.5,45.3,0l96,96c12.5,12.5,12.5,32.8,0,45.3l-96,96c-12.5,12.5-32.8,12.5-45.3,0s-12.5-32.8,0-45.3l41.4-41.3ZM160.01,304.01c0,44.2,35.8,80,80,80v80c0,35.3-28.7,64-64,64h-32c-35.3,0-64-28.7-64-64V144.01c0-35.3,28.7-64,64-64h32c35.3,0,64,28.7,64,64v80c-44.2,0-80,35.8-80,80ZM136.01,448.01c0,13.3,10.7,24,24,24s24-10.7,24-24-10.7-24-24-24-24,10.7-24,24Z"/>
</svg>